<?xml version="1.0" standalone="no"?>
<!DOCTYPE svg PUBLIC "-//W3C//DTD SVG 20010904//EN"
 "http://www.w3.org/TR/2001/REC-SVG-20010904/DTD/svg10.dtd">
<svg version="1.0" xmlns="http://www.w3.org/2000/svg"
 width="889.000000pt" height="1387.000000pt" viewBox="0 0 889.000000 1387.000000"
 preserveAspectRatio="xMidYMid meet">

<g transform="translate(0.000000,1387.000000) scale(0.100000,-0.100000)"
fill="#000000" stroke="none">
<path d="M7400 12170 l0 -1700 -780 0 -780 0 0 53 c-1 28 -1 206 -1 394 l0
343 -239 0 -240 0 0 -395 0 -395 -101 0 c-99 0 -100 0 -94 23 4 12 20 45 37
72 45 74 46 110 8 205 -18 45 -41 85 -52 91 -61 33 -229 29 -284 -6 -26 -17
-74 -142 -74 -193 0 -24 12 -55 34 -92 18 -30 37 -65 40 -77 l7 -23 -445 0
-446 0 0 -165 0 -165 685 0 685 0 0 -399 0 -399 240 -1 239 -1 0 342 c0 189 0
369 1 401 l0 57 310 0 c271 0 309 -2 304 -15 -5 -11 -21 -15 -60 -15 l-54 0 0
-225 0 -225 35 0 35 0 0 -55 0 -55 -36 15 c-19 8 -49 24 -65 36 -51 36 -98 36
-189 -1 -45 -18 -85 -41 -91 -52 -33 -61 -29 -229 6 -284 17 -26 142 -74 194
-74 24 0 54 11 86 31 27 17 59 35 72 40 l23 9 0 -115 0 -114 -46 19 c-26 11
-59 30 -76 41 -50 36 -97 36 -188 -1 -45 -18 -85 -41 -91 -52 -33 -61 -29
-229 6 -284 17 -26 142 -74 194 -74 24 0 54 10 84 30 26 17 63 37 82 45 l35
14 0 -180 c0 -152 -2 -179 -15 -179 -13 0 -15 -46 -15 -350 l0 -350 45 0 45 0
0 -180 c0 -153 -2 -180 -15 -180 -11 0 -15 -12 -15 -50 0 -38 4 -50 15 -50 12
0 15 -16 15 -80 l0 -80 -215 0 -215 0 0 -755 0 -755 218 -3 217 -2 -217 -3
-218 -2 0 -590 0 -590 53 2 52 2 -47 3 -48 4 0 270 0 269 270 0 270 0 0 -270
0 -270 -60 0 -60 0 0 45 0 45 -167 -2 -168 -2 163 -3 c153 -3 162 -5 162 -23
0 -18 -9 -20 -157 -23 l-158 -3 158 -2 157 -2 0 -973 c0 -536 3 -1015 6 -1065
l7 -92 -164 0 -164 0 0 1032 c1 568 -1 841 -2 607 l-3 -426 -167 -6 c-91 -4
-231 -7 -310 -7 l-143 0 0 -540 0 -540 200 0 200 0 0 -30 0 -30 105 0 105 0 0
-37 0 -38 172 5 173 5 3 33 3 32 105 0 104 0 0 30 0 30 210 0 210 0 0 540 0
540 -153 0 c-85 0 -229 3 -320 7 l-167 6 0 439 0 438 65 0 65 0 0 590 0 590
250 0 250 0 0 475 0 475 -45 0 -45 0 0 1085 0 1085 -215 0 -215 0 0 480 0 480
85 0 85 0 0 110 0 110 -85 0 c-90 0 -99 6 -75 50 7 12 8 51 4 100 -6 75 -8 80
-30 80 -23 0 -24 -3 -24 -80 0 -73 -2 -80 -20 -80 -18 0 -20 7 -20 80 0 67 3
80 16 80 10 0 14 6 10 15 -5 13 48 15 434 15 433 0 440 0 440 -20 0 -19 7 -20
165 -20 l165 0 0 1885 0 1885 -165 0 -165 0 0 -1700z m320 -185 l0 -1875 -155
0 c-131 0 -155 2 -155 15 0 8 7 15 15 15 13 0 15 25 15 165 0 140 -2 165 -15
165 -13 0 -15 195 -15 1695 l0 1695 155 0 155 0 0 -1875z m-2330 -795 c0 -33
-4 -60 -10 -60 -6 0 -10 27 -10 60 0 33 4 60 10 60 6 0 10 -27 10 -60z m200 0
l0 -60 -95 0 -95 0 0 60 0 60 95 0 95 0 0 -60z m210 0 l0 -60 -100 0 -100 0 0
60 0 60 100 0 100 0 0 -60z m30 0 c0 -33 -4 -60 -10 -60 -6 0 -10 27 -10 60 0
33 4 60 10 60 6 0 10 -27 10 -60z m-440 -135 c0 -37 -4 -65 -10 -65 -6 0 -10
28 -10 65 0 37 4 65 10 65 6 0 10 -28 10 -65z m200 0 l0 -65 -95 0 -95 0 0 65
0 65 95 0 95 0 0 -65z m210 0 l0 -65 -100 0 -100 0 0 65 0 65 100 0 100 0 0
-65z m30 0 c0 -37 -4 -65 -10 -65 -6 0 -10 28 -10 65 0 37 4 65 10 65 6 0 10
-28 10 -65z m-440 -135 c0 -33 -4 -60 -10 -60 -6 0 -10 27 -10 60 0 33 4 60
10 60 6 0 10 -27 10 -60z m200 0 l0 -60 -95 0 -95 0 0 60 0 60 95 0 95 0 0
-60z m210 0 l0 -60 -100 0 -100 0 0 60 0 60 100 0 100 0 0 -60z m30 0 c0 -33
-4 -60 -10 -60 -6 0 -10 27 -10 60 0 33 4 60 10 60 6 0 10 -27 10 -60z m-702
-62 c27 -8 32 -14 32 -42 0 -42 -25 -76 -56 -76 -19 0 -24 5 -24 26 0 34 -25
57 -62 57 -35 0 -58 -24 -58 -60 0 -19 -5 -23 -30 -23 -20 0 -30 5 -30 15 0 8
-4 15 -9 15 -15 0 -25 60 -12 73 30 30 170 39 249 15z m262 -73 c0 -37 -4 -65
-10 -65 -6 0 -10 28 -10 65 0 37 4 65 10 65 6 0 10 -28 10 -65z m200 0 l0 -65
-95 0 -95 0 0 65 0 65 95 0 95 0 0 -65z m210 0 l0 -65 -100 0 -100 0 0 65 0
65 100 0 100 0 0 -65z m30 0 c0 -37 -4 -65 -10 -65 -6 0 -10 28 -10 65 0 37 4
65 10 65 6 0 10 -28 10 -65z m-625 -36 c18 -47 25 -80 21 -99 -7 -38 -55 -110
-72 -110 -18 0 19 98 43 116 15 10 15 12 -3 18 -11 3 -27 18 -36 34 -14 24
-14 30 -2 46 8 11 14 30 14 43 0 13 2 23 3 23 2 0 16 -32 32 -71z m-331 -50
c-8 -17 -22 -33 -30 -36 -7 -3 -14 -10 -14 -15 0 -6 6 -8 14 -5 10 4 18 -6 27
-31 6 -20 15 -41 20 -46 13 -14 11 -23 -5 -29 -21 -8 -76 84 -76 128 0 19 10
59 23 90 l22 55 17 -41 c16 -37 16 -43 2 -70z m186 96 c16 -19 4 -67 -20 -83
-41 -25 -85 35 -58 78 15 24 60 27 78 5z m-88 -95 c13 -23 24 -30 48 -30 24 0
35 7 48 30 24 41 55 39 82 -5 l22 -36 -22 -59 c-13 -35 -28 -60 -37 -60 -8 0
-11 -5 -7 -12 4 -7 8 -22 9 -35 1 -22 -2 -23 -93 -23 l-95 0 6 35 c4 24 2 35
-6 35 -12 0 -23 21 -47 85 -9 23 -8 37 6 67 22 49 60 53 86 8z m71 -1 c20 13
21 13 8 -2 -7 -10 -21 -17 -31 -17 -10 0 -24 7 -31 17 -13 15 -12 15 9 2 19
-12 25 -12 45 0z m549 -56 l2 -68 3 68 4 68 97 -3 97 -3 3 -62 3 -63 -98 -2
-98 -2 98 -3 97 -4 0 -49 0 -50 -200 0 -200 0 0 50 0 50 93 2 92 2 -92 3 -93
4 -2 57 -2 57 -3 -57 c-5 -79 -23 -74 -23 6 l0 64 110 1 110 2 2 -68z m238 2
c0 -37 -4 -65 -10 -65 -6 0 -10 28 -10 65 0 37 4 65 10 65 6 0 10 -28 10 -65z
m-440 -125 c0 -27 -4 -50 -10 -50 -5 0 -10 23 -10 50 0 28 5 50 10 50 6 0 10
-22 10 -50z m440 0 c0 -27 -4 -50 -10 -50 -5 0 -10 23 -10 50 0 28 5 50 10 50
6 0 10 -22 10 -50z m-915 -14 c0 -13 -3 -27 -7 -31 -9 -9 -30 33 -23 45 12 19
31 10 30 -14z m245 13 c0 -6 -5 -20 -11 -31 -13 -25 -30 -7 -22 23 6 20 33 27
33 8z m-1120 -214 c0 -148 -1 -155 -20 -155 -19 0 -20 7 -20 155 0 148 1 155
20 155 19 0 20 -7 20 -155z m450 0 l0 -155 -220 0 -220 0 0 155 0 155 220 0
220 0 0 -155z m870 0 l0 -155 -430 0 -430 0 0 155 0 155 430 0 430 0 0 -155z
m470 0 l0 -155 -230 0 -230 0 0 155 0 155 230 0 230 0 0 -155z m500 0 l0 -155
-245 0 -245 0 0 155 0 155 245 0 245 0 0 -155z m310 0 l0 -155 -145 0 -145 0
0 155 0 155 145 0 145 0 0 -155z m790 0 l0 -155 -390 0 -390 0 0 155 0 155
390 0 390 0 0 -155z m-2040 -220 c0 -30 -4 -55 -10 -55 -5 0 -10 25 -10 55 0
30 5 55 10 55 6 0 10 -25 10 -55z m410 0 l0 -55 -97 -2 -98 -2 98 -3 97 -4 0
-129 0 -130 -100 0 -100 0 0 65 0 65 98 2 97 2 -97 3 -98 4 -2 62 -2 62 -3
-62 -4 -63 -92 -2 -92 -2 93 -3 92 -4 0 -64 0 -65 -95 0 -95 0 0 130 0 130 93
2 92 2 -92 3 -93 4 0 54 0 55 200 0 200 0 0 -55z m30 0 c0 -30 -4 -55 -10 -55
-5 0 -10 25 -10 55 0 30 5 55 10 55 6 0 10 -25 10 -55z m650 -55 c0 -64 -3
-80 -15 -80 -12 0 -15 16 -15 80 0 64 3 80 15 80 12 0 15 -16 15 -80z m-70
-15 l0 -85 -30 0 -30 0 0 85 0 85 30 0 30 0 0 -85z m30 10 c0 -43 -4 -75 -10
-75 -6 0 -10 32 -10 75 0 43 4 75 10 75 6 0 10 -32 10 -75z m130 0 c0 -43 -4
-75 -10 -75 -6 0 -10 32 -10 75 0 43 4 75 10 75 6 0 10 -32 10 -75z m-1180
-65 c0 -33 -4 -60 -10 -60 -6 0 -10 27 -10 60 0 33 4 60 10 60 6 0 10 -27 10
-60z m440 0 c0 -33 -4 -60 -10 -60 -6 0 -10 27 -10 60 0 33 4 60 10 60 6 0 10
-27 10 -60z m597 -322 c-1 -57 -3 -11 -3 102 0 113 2 159 3 103 2 -57 2 -149
0 -205z m123 292 c0 -5 -25 -10 -55 -10 -30 0 -55 5 -55 10 0 6 25 10 55 10
30 0 55 -4 55 -10z m17 -922 c-1 -172 -2 -32 -2 312 0 344 1 484 2 313 2 -172
2 -454 0 -625z m-157 787 l0 -125 -30 0 -30 0 0 125 0 125 30 0 30 0 0 -125z
m118 108 c-15 -2 -42 -2 -60 0 -18 2 -6 4 27 4 33 0 48 -2 33 -4z m-1138 -78
c0 -37 -4 -65 -10 -65 -6 0 -10 28 -10 65 0 37 4 65 10 65 6 0 10 -28 10 -65z
m440 0 c0 -37 -4 -65 -10 -65 -6 0 -10 28 -10 65 0 37 4 65 10 65 6 0 10 -28
10 -65z m720 55 c0 -5 -25 -10 -55 -10 -30 0 -55 5 -55 10 0 6 25 10 55 10 30
0 55 -4 55 -10z m190 -110 l0 -100 -80 0 -80 0 0 100 0 100 80 0 80 0 0 -100z
m-212 83 c-15 -2 -42 -2 -60 0 -18 2 -6 4 27 4 33 0 48 -2 33 -4z m0 -20 c-15
-2 -42 -2 -60 0 -18 2 -6 4 27 4 33 0 48 -2 33 -4z m0 -20 c-15 -2 -42 -2 -60
0 -18 2 -6 4 27 4 33 0 48 -2 33 -4z m0 -20 c-15 -2 -42 -2 -60 0 -18 2 -6 4
27 4 33 0 48 -2 33 -4z m0 -20 c-15 -2 -42 -2 -60 0 -18 2 -6 4 27 4 33 0 48
-2 33 -4z m22 -23 c0 -5 -25 -10 -55 -10 -30 0 -55 5 -55 10 0 6 25 10 55 10
30 0 55 -4 55 -10z m-1160 -65 c0 -37 -4 -65 -10 -65 -6 0 -10 28 -10 65 0 37
4 65 10 65 6 0 10 -28 10 -65z m200 0 l0 -65 -95 0 -95 0 0 65 0 65 95 0 95 0
0 -65z m210 0 l0 -65 -100 0 -100 0 0 65 0 65 100 0 100 0 0 -65z m30 0 c0
-37 -4 -65 -10 -65 -6 0 -10 28 -10 65 0 37 4 65 10 65 6 0 10 -28 10 -65z
m698 38 c-15 -2 -42 -2 -60 0 -18 2 -6 4 27 4 33 0 48 -2 33 -4z m0 -20 c-15
-2 -42 -2 -60 0 -18 2 -6 4 27 4 33 0 48 -2 33 -4z m0 -20 c-15 -2 -42 -2 -60
0 -18 2 -6 4 27 4 33 0 48 -2 33 -4z m0 -20 c-15 -2 -42 -2 -60 0 -18 2 -6 4
27 4 33 0 48 -2 33 -4z m0 -20 c-15 -2 -42 -2 -60 0 -18 2 -6 4 27 4 33 0 48
-2 33 -4z m22 -23 c0 -5 -25 -10 -55 -10 -30 0 -55 5 -55 10 0 6 25 10 55 10
30 0 55 -4 55 -10z m-242 -35 c23 -15 42 -34 42 -41 0 -18 -98 19 -116 43 -10
15 -12 15 -18 -3 -8 -27 -59 -57 -73 -43 -6 6 -26 14 -44 18 l-32 7 64 26 c77
33 120 31 177 -7z m-918 -40 c0 -37 -4 -65 -10 -65 -6 0 -10 28 -10 65 0 37 4
65 10 65 6 0 10 -28 10 -65z m200 0 l0 -65 -95 0 -95 0 0 65 0 65 95 0 95 0 0
-65z m210 0 l0 -65 -100 0 -100 0 0 65 0 65 100 0 100 0 0 -65z m30 0 c0 -37
-4 -65 -10 -65 -6 0 -10 28 -10 65 0 37 4 65 10 65 6 0 10 -28 10 -65z m698
48 c-15 -2 -42 -2 -60 0 -18 2 -6 4 27 4 33 0 48 -2 33 -4z m0 -20 c-15 -2
-42 -2 -60 0 -18 2 -6 4 27 4 33 0 48 -2 33 -4z m-234 -34 c35 -14 56 -28 56
-37 0 -12 3 -13 11 -5 6 6 19 8 30 6 17 -5 19 -15 19 -95 l0 -90 -30 6 c-20 4
-30 2 -30 -7 0 -12 -21 -23 -85 -47 -23 -9 -37 -8 -67 6 -49 22 -53 60 -8 86
23 13 30 24 30 48 0 24 -7 35 -30 48 -40 23 -39 54 3 81 39 25 34 25 101 0z
m234 14 c-15 -2 -42 -2 -60 0 -18 2 -6 4 27 4 33 0 48 -2 33 -4z m-400 -19
c12 -8 22 -26 22 -40 0 -19 -5 -24 -26 -24 -34 0 -57 -25 -57 -62 0 -35 24
-58 60 -58 19 0 23 -5 23 -30 0 -19 -5 -30 -14 -30 -8 0 -16 -5 -18 -11 -2 -6
-19 -11 -38 -12 -32 -2 -36 1 -48 38 -17 49 -18 161 -2 209 10 31 16 36 44 36
17 0 42 -7 54 -16z m274 5 c15 -8 17 -13 8 -19 -17 -11 -50 0 -50 16 0 17 14
18 42 3z m126 -6 c-15 -2 -42 -2 -60 0 -18 2 -6 4 27 4 33 0 48 -2 33 -4z m0
-20 c-15 -2 -42 -2 -60 0 -18 2 -6 4 27 4 33 0 48 -2 33 -4z m-101 -155 c-2
-29 -3 -6 -3 52 0 58 1 81 3 53 2 -29 2 -77 0 -105z m123 132 c0 -5 -25 -10
-55 -10 -30 0 -55 5 -55 10 0 6 25 10 55 10 30 0 55 -4 55 -10z m-1160 -80 c0
-33 -4 -60 -10 -60 -6 0 -10 27 -10 60 0 33 4 60 10 60 6 0 10 -27 10 -60z
m200 0 l0 -60 -95 0 -95 0 0 60 0 60 95 0 95 0 0 -60z m210 0 l0 -60 -100 0
-100 0 0 60 0 60 100 0 100 0 0 -60z m30 0 c0 -33 -4 -60 -10 -60 -6 0 -10 27
-10 60 0 33 4 60 10 60 6 0 10 -27 10 -60z m698 53 c-15 -2 -42 -2 -60 0 -18
2 -6 4 27 4 33 0 48 -2 33 -4z m-383 -9 c32 -8 48 -40 33 -63 -27 -44 -98 -30
-98 19 0 42 21 56 65 44z m65 -44 c0 -10 -7 -24 -17 -31 -15 -13 -15 -12 -2 9
12 19 12 25 0 45 -13 20 -13 21 2 8 10 -7 17 -21 17 -31z m318 33 c-15 -2 -42
-2 -60 0 -18 2 -6 4 27 4 33 0 48 -2 33 -4z m0 -20 c-15 -2 -42 -2 -60 0 -18
2 -6 4 27 4 33 0 48 -2 33 -4z m0 -20 c-15 -2 -42 -2 -60 0 -18 2 -6 4 27 4
33 0 48 -2 33 -4z m22 -23 c0 -5 -25 -10 -55 -10 -30 0 -55 5 -55 10 0 6 25
10 55 10 30 0 55 -4 55 -10z m-22 -27 c-15 -2 -42 -2 -60 0 -18 2 -6 4 27 4
33 0 48 -2 33 -4z m0 -20 c-15 -2 -42 -2 -60 0 -18 2 -6 4 27 4 33 0 48 -2 33
-4z m0 -20 c-15 -2 -42 -2 -60 0 -18 2 -6 4 27 4 33 0 48 -2 33 -4z m-113 -15
c9 -9 -33 -30 -45 -23 -19 12 -10 31 14 30 13 0 27 -3 31 -7z m113 -5 c-15 -2
-42 -2 -60 0 -18 2 -6 4 27 4 33 0 48 -2 33 -4z m-175 -17 c4 -10 -11 -25 -44
-45 -60 -37 -103 -39 -177 -7 l-53 23 42 16 c37 15 44 15 71 1 16 -8 32 -22
35 -30 3 -7 10 -14 15 -14 6 0 8 6 5 14 -4 10 6 18 31 27 20 6 41 15 47 20 13
13 22 11 28 -5z m74 -1143 c-1 -213 -2 -41 -2 382 0 424 1 598 2 388 2 -210 2
-556 0 -770z m123 1137 c0 -5 -25 -10 -55 -10 -30 0 -55 5 -55 10 0 6 25 10
55 10 30 0 55 -4 55 -10z m-22 -27 c-15 -2 -42 -2 -60 0 -18 2 -6 4 27 4 33 0
48 -2 33 -4z m0 -20 c-15 -2 -42 -2 -60 0 -18 2 -6 4 27 4 33 0 48 -2 33 -4z
m0 -20 c-15 -2 -42 -2 -60 0 -18 2 -6 4 27 4 33 0 48 -2 33 -4z m0 -20 c-15
-2 -42 -2 -60 0 -18 2 -6 4 27 4 33 0 48 -2 33 -4z m0 -20 c-15 -2 -42 -2 -60
0 -18 2 -6 4 27 4 33 0 48 -2 33 -4z m22 -23 c0 -5 -25 -10 -55 -10 -30 0 -55
5 -55 10 0 6 25 10 55 10 30 0 55 -4 55 -10z m-262 -55 c23 -15 42 -34 42 -41
0 -18 -98 19 -116 43 -10 15 -12 15 -18 -3 -8 -27 -59 -57 -73 -43 -6 6 -26
14 -44 18 l-32 7 64 26 c77 33 120 31 177 -7z m240 28 c-15 -2 -42 -2 -60 0
-18 2 -6 4 27 4 33 0 48 -2 33 -4z m0 -20 c-15 -2 -42 -2 -60 0 -18 2 -6 4 27
4 33 0 48 -2 33 -4z m0 -20 c-15 -2 -42 -2 -60 0 -18 2 -6 4 27 4 33 0 48 -2
33 -4z m-254 -34 c32 -12 56 -28 56 -36 0 -8 5 -11 12 -7 6 4 24 8 40 9 l28 3
0 -99 c0 -74 -3 -97 -12 -95 -46 14 -68 15 -68 4 0 -13 -20 -24 -85 -48 -23
-9 -37 -8 -67 6 -49 22 -53 60 -8 86 23 13 30 24 30 48 0 24 -7 35 -30 48 -40
23 -39 54 3 81 39 25 34 25 101 0z m254 14 c-15 -2 -42 -2 -60 0 -18 2 -6 4
27 4 33 0 48 -2 33 -4z m-420 -19 c12 -8 22 -26 22 -40 0 -19 -5 -24 -26 -24
-34 0 -57 -25 -57 -62 0 -35 24 -58 60 -58 19 0 23 -5 23 -30 0 -19 -5 -30
-14 -30 -8 0 -16 -5 -18 -11 -2 -6 -19 -11 -38 -12 -32 -2 -36 1 -48 38 -17
49 -18 161 -2 209 10 31 16 36 44 36 17 0 42 -7 54 -16z m274 5 c15 -8 17 -13
8 -19 -17 -11 -50 0 -50 16 0 17 14 18 42 3z m146 -6 c-15 -2 -42 -2 -60 0
-18 2 -6 4 27 4 33 0 48 -2 33 -4z m22 -23 c0 -5 -25 -10 -55 -10 -30 0 -55 5
-55 10 0 6 25 10 55 10 30 0 55 -4 55 -10z m-22 -27 c-15 -2 -42 -2 -60 0 -18
2 -6 4 27 4 33 0 48 -2 33 -4z m0 -20 c-15 -2 -42 -2 -60 0 -18 2 -6 4 27 4
33 0 48 -2 33 -4z m-403 -9 c32 -8 48 -40 33 -63 -27 -44 -98 -30 -98 19 0 42
21 56 65 44z m65 -44 c0 -10 -7 -24 -17 -31 -15 -13 -15 -12 -2 9 12 19 12 25
0 45 -13 20 -13 21 2 8 10 -7 17 -21 17 -31z m338 33 c-15 -2 -42 -2 -60 0
-18 2 -6 4 27 4 33 0 48 -2 33 -4z m22 -108 l0 -95 -55 0 -55 0 0 95 0 95 55
0 55 0 0 -95z m-155 -37 c9 -9 -33 -30 -45 -23 -19 12 -10 31 14 30 13 0 27
-3 31 -7z m-62 -22 c4 -10 -11 -25 -44 -45 -60 -37 -103 -39 -177 -7 l-53 23
42 16 c37 15 44 15 71 1 16 -8 32 -22 35 -30 3 -7 10 -14 15 -14 6 0 8 6 5 14
-4 10 6 18 31 27 20 6 41 15 47 20 13 13 22 11 28 -5z m195 -53 c-15 -2 -42
-2 -60 0 -18 2 -6 4 27 4 33 0 48 -2 33 -4z m0 -20 c-15 -2 -42 -2 -60 0 -18
2 -6 4 27 4 33 0 48 -2 33 -4z m-61 -19 c-3 -3 -12 -4 -19 -1 -8 3 -5 6 6 6
11 1 17 -2 13 -5z m313 -224 l0 -230 -150 0 -150 0 0 230 0 230 150 0 150 0 0
-230z m200 0 l0 -230 -95 0 -95 0 0 230 0 230 95 0 95 0 0 -230z m17 -117 c-1
-65 -3 -12 -3 117 0 129 2 182 3 118 2 -65 2 -171 0 -235z m-530 321 c-3 -3
-12 -4 -19 -1 -8 3 -5 6 6 6 11 1 17 -2 13 -5z m3 -24 c0 -5 -7 -10 -15 -10
-8 0 -15 5 -15 10 0 6 7 10 15 10 8 0 15 -4 15 -10z m-3 -26 c-3 -3 -12 -4
-19 -1 -8 3 -5 6 6 6 11 1 17 -2 13 -5z m0 -20 c-3 -3 -12 -4 -19 -1 -8 3 -5
6 6 6 11 1 17 -2 13 -5z m0 -20 c-3 -3 -12 -4 -19 -1 -8 3 -5 6 6 6 11 1 17
-2 13 -5z m0 -20 c-3 -3 -12 -4 -19 -1 -8 3 -5 6 6 6 11 1 17 -2 13 -5z m0
-20 c-3 -3 -12 -4 -19 -1 -8 3 -5 6 6 6 11 1 17 -2 13 -5z m0 -20 c-3 -3 -12
-4 -19 -1 -8 3 -5 6 6 6 11 1 17 -2 13 -5z m0 -20 c-3 -3 -12 -4 -19 -1 -8 3
-5 6 6 6 11 1 17 -2 13 -5z m0 -20 c-3 -3 -12 -4 -19 -1 -8 3 -5 6 6 6 11 1
17 -2 13 -5z m3 -24 c0 -5 -7 -10 -15 -10 -8 0 -15 5 -15 10 0 6 7 10 15 10 8
0 15 -4 15 -10z m-3 -26 c-3 -3 -12 -4 -19 -1 -8 3 -5 6 6 6 11 1 17 -2 13 -5z
m-57 -348 l0 -335 33 -4 c28 -3 26 -4 -10 -5 l-43 -2 0 340 c0 220 4 340 10
340 6 0 10 -118 10 -334z m57 328 c-3 -3 -12 -4 -19 -1 -8 3 -5 6 6 6 11 1 17
-2 13 -5z m0 -20 c-3 -3 -12 -4 -19 -1 -8 3 -5 6 6 6 11 1 17 -2 13 -5z m0
-20 c-3 -3 -12 -4 -19 -1 -8 3 -5 6 6 6 11 1 17 -2 13 -5z m0 -20 c-3 -3 -12
-4 -19 -1 -8 3 -5 6 6 6 11 1 17 -2 13 -5z m0 -20 c-3 -3 -12 -4 -19 -1 -8 3
-5 6 6 6 11 1 17 -2 13 -5z m0 -30 c-3 -3 -12 -4 -19 -1 -8 3 -5 6 6 6 11 1
17 -2 13 -5z m3 -24 c0 -5 -7 -10 -15 -10 -8 0 -15 5 -15 10 0 6 7 10 15 10 8
0 15 -4 15 -10z m-3 -26 c-3 -3 -12 -4 -19 -1 -8 3 -5 6 6 6 11 1 17 -2 13 -5z
m0 -20 c-3 -3 -12 -4 -19 -1 -8 3 -5 6 6 6 11 1 17 -2 13 -5z m313 -284 l0
-280 -150 0 -150 0 0 280 0 280 150 0 150 0 0 -280z m200 0 l0 -280 -95 0 -95
0 0 280 0 280 95 0 95 0 0 -280z m17 -142 c-1 -79 -3 -15 -3 142 0 157 2 221
3 143 2 -79 2 -207 0 -285z m-530 406 c-3 -3 -12 -4 -19 -1 -8 3 -5 6 6 6 11
1 17 -2 13 -5z m0 -20 c-3 -3 -12 -4 -19 -1 -8 3 -5 6 6 6 11 1 17 -2 13 -5z
m0 -20 c-3 -3 -12 -4 -19 -1 -8 3 -5 6 6 6 11 1 17 -2 13 -5z m0 -20 c-3 -3
-12 -4 -19 -1 -8 3 -5 6 6 6 11 1 17 -2 13 -5z m0 -30 c-3 -3 -12 -4 -19 -1
-8 3 -5 6 6 6 11 1 17 -2 13 -5z m3 -24 c0 -5 -7 -10 -15 -10 -8 0 -15 5 -15
10 0 6 7 10 15 10 8 0 15 -4 15 -10z m-3 -26 c-3 -3 -12 -4 -19 -1 -8 3 -5 6
6 6 11 1 17 -2 13 -5z m0 -20 c-3 -3 -12 -4 -19 -1 -8 3 -5 6 6 6 11 1 17 -2
13 -5z m0 -20 c-3 -3 -12 -4 -19 -1 -8 3 -5 6 6 6 11 1 17 -2 13 -5z m0 -20
c-3 -3 -12 -4 -19 -1 -8 3 -5 6 6 6 11 1 17 -2 13 -5z m0 -20 c-3 -3 -12 -4
-19 -1 -8 3 -5 6 6 6 11 1 17 -2 13 -5z m0 -20 c-3 -3 -12 -4 -19 -1 -8 3 -5
6 6 6 11 1 17 -2 13 -5z m3 -114 c0 -82 -3 -100 -15 -100 -12 0 -15 18 -15
100 0 82 3 100 15 100 12 0 15 -18 15 -100z m310 -535 l0 -335 -150 0 -150 0
0 335 0 335 150 0 150 0 0 -335z m200 0 l0 -335 -95 0 -95 0 0 335 0 335 95 0
95 0 0 -335z m17 -167 c-1 -95 -3 -20 -3 167 0 187 2 265 3 173 2 -92 2 -245
0 -340z m-527 162 c0 -22 -4 -40 -10 -40 -5 0 -10 18 -10 40 0 22 5 40 10 40
6 0 10 -18 10 -40z m-10 -355 l0 -135 -205 0 -205 0 0 135 0 135 205 0 205 0
0 -135z m320 -200 l0 -215 -150 0 -150 0 0 215 0 215 150 0 150 0 0 -215z
m200 0 l0 -215 -95 0 -95 0 0 215 0 215 95 0 95 0 0 -215z m17 -107 c-1 -62
-3 -14 -3 107 0 121 2 172 3 113 2 -59 2 -158 0 -220z m-537 37 l0 -125 -205
0 -205 0 0 125 0 125 205 0 205 0 0 -125z m0 -265 l0 -130 -205 0 -205 0 0
130 0 130 205 0 205 0 0 -130z m280 -365 l0 -465 -130 0 -130 0 0 153 0 152
30 17 c38 22 38 37 0 45 l-30 6 0 86 0 87 30 11 c17 6 30 16 30 21 0 5 -13 15
-30 22 l-30 12 0 159 0 159 130 0 130 0 0 -465z m350 0 l0 -465 -170 0 -170 0
0 465 0 465 170 0 170 0 0 -465z m-889 178 c-75 -31 -90 -56 -94 -158 -2 -63
-3 -65 -29 -65 l-28 0 0 125 0 125 108 0 107 -1 -64 -26z m207 -8 c23 -15 42
-34 42 -41 0 -18 -98 19 -116 43 -10 15 -12 15 -18 -3 -8 -27 -59 -57 -73 -43
-6 6 -26 14 -44 18 l-32 7 64 26 c77 33 120 31 177 -7z m52 10 c0 -27 -10 -26
-55 9 -19 15 -18 15 18 16 33 0 37 -3 37 -25z m-67 -56 c61 -23 67 -33 67
-116 l0 -53 -73 0 -73 0 4 35 c4 30 0 37 -27 52 -41 24 -41 55 2 82 39 25 34
25 100 0z m-165 -5 c12 -8 22 -26 22 -40 0 -19 -5 -24 -26 -24 -34 0 -57 -25
-57 -62 0 -35 24 -58 60 -58 19 0 23 -5 23 -30 0 -19 -5 -30 -14 -30 -8 0 -16
-5 -18 -11 -2 -6 -19 -11 -38 -12 -32 -2 -36 1 -48 38 -17 49 -18 161 -2 209
10 31 16 36 44 36 17 0 42 -7 54 -16z m274 5 c15 -8 17 -13 8 -19 -17 -11 -50
0 -50 16 0 17 14 18 42 3z m-257 -85 c32 -8 48 -40 33 -63 -27 -44 -98 -30
-98 19 0 42 21 56 65 44z m65 -44 c0 -10 -7 -24 -17 -31 -15 -13 -15 -12 -2 9
12 19 12 25 0 45 -13 20 -13 21 2 8 10 -7 17 -21 17 -31z m-195 -87 c11 -60
29 -78 105 -107 94 -34 134 -34 193 4 l47 30 0 -75 0 -75 -205 0 -205 0 0 130
0 130 29 0 c25 0 30 -4 36 -37z m340 10 c-4 -16 -7 -28 -8 -29 -102 -46 -110
-47 -151 -27 -28 13 -36 22 -36 44 0 15 6 30 13 32 6 3 52 6 101 6 l88 1 -7
-27z m60 -35 c9 -9 -33 -30 -45 -23 -19 12 -10 31 14 30 13 0 27 -3 31 -7z
m-62 -22 c4 -10 -11 -25 -44 -45 -60 -37 -103 -39 -177 -7 l-53 23 42 16 c37
15 44 15 71 1 16 -8 32 -22 35 -30 3 -7 10 -14 15 -14 6 0 8 6 5 14 -4 10 6
18 31 27 20 6 41 15 47 20 13 13 22 11 28 -5z m7 -251 l0 -65 -205 0 -205 0 0
65 0 65 205 0 205 0 0 -65z m-2 -102 c-76 -2 -200 -2 -275 0 -76 1 -14 3 137
3 151 0 213 -2 138 -3z m132 -28 c0 -13 -37 -15 -270 -15 -233 0 -270 2 -270
15 0 13 37 15 270 15 233 0 270 -2 270 -15z m0 -300 l0 -275 -270 0 -270 0 0
275 0 275 270 0 270 0 0 -275z m-878 -1762 c-34 -14 -67 -34 -73 -45 -33 -62
-29 -229 6 -284 19 -30 153 -78 202 -72 21 3 46 8 56 12 15 7 17 1 17 -73 l0
-81 -26 10 c-14 6 -37 10 -52 10 -40 0 -181 -60 -193 -82 -33 -61 -29 -229 6
-284 16 -25 142 -74 191 -74 20 0 44 5 55 10 17 10 19 7 19 -35 l0 -45 -195 0
-195 0 0 530 0 530 123 0 122 -1 -63 -26z m206 -8 c23 -15 42 -34 42 -41 0
-18 -98 19 -116 43 -10 15 -12 15 -18 -3 -8 -27 -59 -57 -73 -43 -6 6 -26 14
-44 18 l-32 7 64 26 c77 33 120 31 177 -7z m2 25 c0 -5 -2 -10 -4 -10 -3 0 -8
5 -11 10 -3 6 -1 10 4 10 6 0 11 -4 11 -10z m1180 -520 l0 -530 -127 0 -128 1
63 26 c34 14 67 34 73 45 33 61 29 229 -6 284 -16 25 -142 74 -191 74 -19 0
-48 -7 -64 -15 l-30 -16 0 90 0 90 28 -15 c15 -7 41 -14 57 -14 43 0 184 59
196 82 33 62 29 229 -6 284 -19 30 -153 78 -202 72 -21 -3 -46 -8 -55 -12 -16
-7 -18 -2 -18 38 l0 46 205 0 205 0 0 -530z m-480 445 l0 -45 -45 0 -45 0 0
45 0 45 45 0 45 0 0 -45z m-735 11 l35 -15 0 -124 0 -124 -39 -12 c-86 -25
-153 50 -81 91 23 13 30 24 30 48 0 24 -7 35 -30 48 -40 23 -39 54 3 81 38 25
39 25 82 7z m-147 -12 c12 -8 22 -26 22 -40 0 -19 -5 -24 -26 -24 -34 0 -57
-25 -57 -62 0 -35 24 -58 60 -58 19 0 23 -5 23 -30 0 -19 -5 -30 -14 -30 -8 0
-16 -5 -18 -11 -2 -6 -19 -11 -38 -12 -32 -2 -36 1 -48 38 -17 49 -18 161 -2
209 10 31 16 36 44 36 17 0 42 -7 54 -16z m274 5 c15 -8 17 -13 8 -19 -17 -11
-50 0 -50 16 0 17 14 18 42 3z m856 -23 l53 -23 -42 -16 c-37 -15 -44 -15 -71
-1 -16 8 -32 22 -35 30 -3 7 -10 14 -15 14 -6 0 -8 -6 -5 -14 4 -10 -6 -18
-31 -27 -20 -6 -43 -17 -51 -23 -14 -11 -15 -9 -24 19 -1 3 18 19 43 35 56 36
106 38 178 6z m-63 -53 c46 -22 49 -60 5 -85 -43 -24 -42 -72 0 -96 41 -23 37
-57 -10 -84 -33 -19 -37 -20 -72 -5 l-38 16 0 124 0 124 33 11 c44 14 42 14
82 -5z m163 -28 c17 -49 18 -162 2 -209 -10 -31 -16 -36 -44 -36 -42 0 -76 25
-76 56 0 19 5 24 26 24 34 0 57 25 57 62 0 35 -24 58 -60 58 -19 0 -23 5 -23
30 0 20 5 30 15 30 8 0 15 4 15 9 0 11 27 20 55 18 14 -2 24 -14 33 -42z
m-330 14 c2 -11 -6 -14 -25 -13 -40 2 -40 3 -18 19 22 17 39 15 43 -6z m-883
5 c32 -8 48 -40 33 -63 -27 -44 -98 -30 -98 19 0 42 21 56 65 44z m65 -44 c0
-10 -7 -24 -17 -31 -15 -13 -15 -12 -2 9 12 19 12 25 0 45 -13 20 -13 21 2 8
10 -7 17 -21 17 -31z m1083 -44 c21 -16 22 -59 2 -76 -19 -16 -67 -4 -83 20
-19 31 7 65 53 69 6 0 18 -6 28 -13z m-95 -16 c-10 -16 -10 -24 1 -42 13 -21
13 -22 -2 -9 -20 16 -22 42 -5 59 18 18 20 15 6 -8z m-783 -52 c9 -9 -33 -30
-45 -23 -19 12 -10 31 14 30 13 0 27 -3 31 -7z m-62 -22 c4 -10 -11 -25 -44
-45 -60 -37 -103 -39 -177 -7 l-53 23 42 16 c37 15 44 15 71 1 16 -8 32 -22
35 -30 3 -7 10 -14 15 -14 6 0 8 6 5 14 -4 10 6 18 31 27 20 6 41 15 47 20 13
13 22 11 28 -5z m677 -72 c0 -17 -14 -18 -42 -3 -15 8 -17 13 -8 19 17 11 50
0 50 -16z m-560 -39 l0 -45 -45 0 -45 0 0 45 0 45 45 0 45 0 0 -45z m686 -12
c10 -15 12 -15 18 3 8 27 59 57 73 43 6 -6 26 -14 44 -18 32 -6 31 -7 -40 -35
-48 -19 -82 -26 -101 -22 -38 7 -110 55 -110 72 0 18 98 -19 116 -43z m-838
-128 c23 -15 42 -34 42 -41 0 -18 -98 19 -116 43 -10 15 -12 15 -18 -3 -8 -27
-59 -57 -73 -43 -6 6 -26 14 -44 18 l-32 7 64 26 c77 33 120 31 177 -7z m692
-60 l0 -45 -45 0 -45 0 0 45 0 45 45 0 45 0 0 -45z m-731 24 l31 -11 0 -128 0
-128 -34 -12 c-28 -9 -40 -8 -70 6 -47 23 -50 61 -6 86 23 13 30 24 30 48 0
24 -7 35 -30 48 -40 23 -39 54 3 81 38 24 35 24 76 10z m-141 -15 c12 -8 22
-26 22 -40 0 -19 -5 -24 -26 -24 -34 0 -57 -25 -57 -62 0 -35 24 -58 60 -58
19 0 23 -5 23 -30 0 -19 -5 -30 -14 -30 -8 0 -16 -5 -18 -11 -2 -6 -19 -11
-38 -12 -32 -2 -36 1 -48 38 -17 49 -18 161 -2 209 10 31 16 36 44 36 17 0 42
-7 54 -16z m274 5 c15 -8 17 -13 8 -19 -17 -11 -50 0 -50 16 0 17 14 18 42 3z
m856 -23 l53 -23 -42 -16 c-37 -15 -44 -15 -71 -1 -16 8 -32 22 -35 30 -3 7
-10 14 -15 14 -6 0 -8 -6 -5 -14 4 -10 -6 -18 -31 -27 -20 -6 -43 -17 -51 -23
-14 -11 -15 -9 -24 19 -1 3 18 19 43 35 56 36 106 38 178 6z m-63 -53 c46 -22
49 -60 5 -85 -23 -13 -30 -24 -30 -48 0 -24 7 -35 30 -48 42 -24 39 -55 -6
-82 -34 -22 -36 -22 -80 -5 l-45 17 3 121 3 120 35 13 c46 16 44 17 85 -3z
m163 -28 c17 -49 18 -162 2 -209 -10 -31 -16 -36 -44 -36 -42 0 -76 25 -76 56
0 19 5 24 26 24 34 0 57 25 57 62 0 35 -24 58 -60 58 -19 0 -23 5 -23 30 0 20
5 30 15 30 8 0 15 4 15 9 0 11 27 20 55 18 14 -2 24 -14 33 -42z m-330 14 c2
-11 -6 -14 -25 -13 -40 2 -40 3 -18 19 22 17 39 15 43 -6z m-883 5 c32 -8 48
-40 33 -63 -27 -44 -98 -30 -98 19 0 42 21 56 65 44z m65 -44 c0 -10 -7 -24
-17 -31 -15 -13 -15 -12 -2 9 12 19 12 25 0 45 -13 20 -13 21 2 8 10 -7 17
-21 17 -31z m1083 -44 c21 -16 22 -59 2 -76 -19 -16 -67 -4 -83 20 -19 31 7
65 53 69 6 0 18 -6 28 -13z m-95 -16 c-10 -16 -10 -24 1 -42 13 -21 13 -22 -2
-9 -20 16 -22 42 -5 59 18 18 20 15 6 -8z m-783 -52 c9 -9 -33 -30 -45 -23
-19 12 -10 31 14 30 13 0 27 -3 31 -7z m-62 -22 c4 -10 -11 -25 -44 -45 -60
-37 -103 -39 -177 -7 l-53 23 42 16 c37 15 44 15 71 1 16 -8 32 -22 35 -30 3
-7 10 -14 15 -14 6 0 8 6 5 14 -4 10 6 18 31 27 20 6 41 15 47 20 13 13 22 11
28 -5z m677 -72 c0 -17 -14 -18 -42 -3 -15 8 -17 13 -8 19 17 11 50 0 50 -16z
m126 -51 c10 -15 12 -15 18 3 8 27 59 57 73 43 6 -6 26 -14 44 -18 32 -6 31
-7 -40 -35 -48 -19 -82 -26 -101 -22 -38 7 -110 55 -110 72 0 18 98 -19 116
-43z m-696 2 l0 -45 -45 0 -45 0 0 45 0 45 45 0 45 0 0 -45z m635 -25 c3 -5
-1 -10 -9 -10 -9 0 -16 5 -16 10 0 6 4 10 9 10 6 0 13 -4 16 -10z"/>
<path d="M4150 9740 l0 -150 -100 0 -100 0 0 -45 0 -45 -110 0 -110 0 0 -2117
0 -2118 -35 -70 c-47 -96 -47 -149 3 -151 78 -2 80 -3 93 -39 7 -19 17 -35 21
-35 5 0 -1 18 -12 40 -17 33 -18 43 -8 61 10 15 20 19 41 15 48 -10 89 58 56
91 -18 18 -1 53 27 53 l24 0 0 -139 0 -139 -42 9 c-23 6 -45 12 -49 15 -4 2
-10 0 -13 -5 -7 -10 48 -26 76 -22 12 1 16 -4 15 -19 -1 -15 -7 -20 -19 -17
-10 3 -20 1 -23 -4 -3 -4 -17 -4 -32 2 -20 7 -28 6 -35 -3 -4 -7 -8 -8 -8 -2
0 5 -19 24 -42 40 l-43 30 3 -143 c3 -134 4 -143 23 -143 19 0 19 -11 19 -440
0 -384 -2 -440 -15 -440 -12 0 -15 -19 -15 -110 l0 -110 70 0 70 0 0 -35 0
-35 -320 0 -320 0 0 -540 0 -540 210 0 210 0 0 -35 0 -35 105 0 105 0 0 -37 0
-38 175 3 175 3 0 34 0 35 105 0 105 0 0 35 0 35 68 -2 c37 -2 129 -2 205 0
l137 2 0 540 0 540 -310 0 -310 0 0 35 0 35 958 3 957 2 -957 3 -958 2 0 60 0
60 55 0 55 0 0 40 0 40 903 3 902 2 -902 3 -903 2 0 335 0 335 255 0 255 0 0
240 0 240 75 0 75 0 0 2465 0 2465 -420 0 -420 0 0 -150z m330 -2315 l0 -2455
-160 0 -160 0 0 249 0 249 37 19 c47 23 52 40 16 48 -56 13 -54 9 -51 102 3
77 5 88 20 85 20 -3 58 15 58 27 0 5 -18 16 -40 25 l-40 16 0 69 0 69 37 19
c47 23 52 40 16 48 -56 13 -54 9 -51 102 3 77 5 88 20 85 20 -3 58 15 58 27 0
5 -18 16 -40 25 l-40 16 0 58 0 58 42 19 c23 11 44 25 46 32 3 11 -6 15 -60
27 -28 6 -28 7 -28 84 0 78 10 105 35 95 16 -5 55 14 55 27 0 4 -20 16 -45 26
l-45 17 0 61 0 62 42 19 c23 11 44 25 46 32 3 11 -6 15 -60 27 -28 6 -28 7
-28 84 0 78 10 105 35 95 16 -5 55 14 55 27 0 4 -20 16 -45 26 l-45 17 0 63
c0 62 0 62 37 81 47 23 52 40 16 48 -56 13 -54 9 -51 102 3 77 5 88 20 85 20
-3 58 15 58 27 0 5 -18 16 -40 25 l-40 16 0 64 c0 64 0 64 37 83 47 23 52 40
16 48 -56 13 -54 9 -51 102 3 77 5 88 20 85 20 -3 58 15 58 27 0 5 -18 16 -40
25 l-40 16 0 63 0 63 42 19 c51 24 59 42 21 51 -66 14 -63 9 -63 93 0 77 10
104 35 94 16 -5 55 14 55 27 0 4 -20 16 -45 26 l-45 17 0 66 0 67 42 19 c51
24 59 42 21 51 -66 14 -63 9 -63 93 0 77 10 104 35 94 16 -5 55 14 55 27 0 4
-20 16 -45 26 l-45 17 0 61 0 62 42 19 c23 11 44 25 46 32 3 11 -6 15 -60 27
-28 6 -28 7 -28 84 0 78 10 105 35 95 16 -5 55 14 55 27 0 4 -20 16 -45 26
l-45 17 0 238 0 239 160 0 160 0 0 -2455z m350 2011 l0 -445 -170 0 -170 -1 0
445 0 445 170 0 170 0 0 -444z m150 -2011 l0 -2455 -70 0 -70 0 0 2455 0 2455
70 0 70 0 0 -2455z m-840 2075 l0 -80 -37 20 c-41 22 -93 26 -124 10 -18 -10
-19 -7 -19 60 l0 70 90 0 90 0 0 -80z m-200 -39 c0 -24 -6 -31 -46 -46 -60
-23 -77 -60 -77 -170 0 -115 17 -155 76 -183 40 -19 47 -27 47 -51 0 -24 -6
-31 -46 -46 -60 -23 -77 -60 -77 -170 0 -115 17 -155 76 -183 42 -20 47 -26
47 -56 0 -30 -4 -35 -46 -51 -60 -23 -77 -60 -77 -170 0 -115 17 -155 76 -183
37 -18 47 -27 47 -47 0 -21 -9 -29 -54 -49 -46 -20 -56 -30 -67 -62 -16 -51
-15 -178 2 -229 12 -34 22 -44 67 -64 41 -20 52 -30 52 -48 0 -19 -11 -28 -54
-47 -46 -20 -56 -30 -67 -62 -16 -51 -15 -178 2 -229 12 -34 22 -44 67 -64 44
-21 52 -29 52 -52 0 -22 -7 -29 -46 -44 -60 -23 -77 -60 -77 -170 0 -115 17
-155 76 -183 40 -19 47 -27 47 -51 0 -24 -6 -31 -46 -46 -60 -23 -77 -60 -77
-170 0 -115 17 -155 76 -183 66 -31 64 -55 -7 -86 -46 -20 -56 -30 -67 -62
-16 -51 -15 -178 2 -229 12 -34 22 -44 67 -64 45 -21 52 -29 52 -53 0 -25 -7
-31 -54 -52 -46 -20 -56 -30 -67 -62 -16 -51 -15 -178 2 -229 12 -34 22 -44
67 -64 l52 -25 0 -53 c0 -51 -1 -53 -27 -54 -18 -1 -8 -5 26 -13 66 -14 103
-47 121 -110 7 -26 10 -49 7 -52 -8 -8 -72 87 -69 103 3 11 -1 12 -17 4 -29
-16 -81 -14 -81 3 0 7 -12 25 -26 40 -24 23 -25 26 -8 27 14 1 13 3 -6 8 -29
9 -54 -1 -92 -37 l-28 -26 0 2112 0 2112 100 0 100 0 0 -29z m178 -46 c23 -15
42 -34 42 -41 0 -18 -98 19 -116 43 -10 15 -12 15 -18 -3 -8 -27 -59 -57 -73
-43 -6 6 -26 14 -44 18 l-32 7 64 26 c77 33 120 31 177 -7z m-25 -42 l47 -17
0 -53 0 -53 -54 0 c-39 0 -55 4 -60 15 -3 8 -17 20 -31 27 -36 16 -33 51 8 77
39 25 32 25 90 4z m-155 -9 c12 -8 22 -26 22 -40 0 -19 -5 -24 -26 -24 -34 0
-57 -25 -57 -62 0 -35 24 -58 60 -58 19 0 23 -5 23 -30 0 -19 -5 -30 -14 -30
-8 0 -16 -5 -18 -11 -2 -6 -19 -11 -38 -12 -32 -2 -36 1 -48 38 -17 49 -18
161 -2 209 10 31 16 36 44 36 17 0 42 -7 54 -16z m274 5 c15 -8 17 -13 8 -19
-17 -11 -50 0 -50 16 0 17 14 18 42 3z m-257 -85 c32 -8 48 -40 33 -63 -27
-44 -98 -30 -98 19 0 42 21 56 65 44z m65 -44 c0 -10 -7 -24 -17 -31 -15 -13
-15 -12 -2 9 12 19 12 25 0 45 -13 20 -13 21 2 8 10 -7 17 -21 17 -31z m60
-74 c0 -56 -3 -66 -20 -71 -31 -10 -40 2 -40 55 0 64 7 80 36 80 23 0 24 -3
24 -64z m60 16 c0 -48 -12 -72 -37 -72 -9 0 -13 17 -13 60 0 57 1 60 25 60 23
0 25 -3 25 -48z m-130 -33 c0 -33 -3 -40 -16 -35 -9 3 -18 6 -20 6 -10 0 -3
59 9 63 24 10 27 6 27 -34z m215 -21 c9 -9 -33 -30 -45 -23 -19 12 -10 31 14
30 13 0 27 -3 31 -7z m-62 -22 c4 -10 -11 -25 -44 -45 -60 -37 -103 -39 -177
-7 l-53 23 42 16 c37 15 44 15 71 1 16 -8 32 -22 35 -30 3 -7 10 -14 15 -14 6
0 8 6 5 14 -4 10 6 18 31 27 20 6 41 15 47 20 13 13 22 11 28 -5z m-23 -91 c0
-43 -1 -45 -21 -35 -32 18 -35 40 -8 61 13 10 25 19 27 19 1 0 2 -20 2 -45z
m-151 -11 c-34 -19 -39 -17 -39 10 0 24 2 24 31 14 l32 -11 -24 -13z m91 8 c0
-5 -13 -7 -30 -4 -16 2 -30 6 -30 8 0 2 14 4 30 4 17 0 30 -4 30 -8z m38 -47
c23 -15 42 -34 42 -41 0 -18 -98 19 -116 43 -10 15 -12 15 -18 -3 -8 -27 -59
-57 -73 -43 -6 6 -26 14 -44 18 l-32 7 64 26 c77 33 120 31 177 -7z m712 -355
l0 -370 -170 0 -170 0 0 370 0 370 170 0 170 0 0 -370z m-766 324 c14 -5 16
-28 16 -144 0 -130 -1 -139 -20 -145 -11 -3 -24 -4 -29 -1 -9 6 -13 274 -4
289 5 9 16 9 37 1z m-126 -20 c12 -8 22 -26 22 -40 0 -19 -5 -24 -26 -24 -34
0 -57 -25 -57 -62 0 -35 24 -58 60 -58 19 0 23 -5 23 -30 0 -19 -5 -30 -14
-30 -8 0 -16 -5 -18 -11 -2 -6 -19 -11 -38 -12 -32 -2 -36 1 -48 38 -17 49
-18 161 -2 209 10 31 16 36 44 36 17 0 42 -7 54 -16z m274 5 c15 -8 17 -13 8
-19 -17 -11 -50 0 -50 16 0 17 14 18 42 3z m-205 -75 c-2 -3 -12 -2 -21 2 -21
8 -21 50 2 63 15 8 17 5 20 -26 2 -19 1 -37 -1 -39z m124 66 c14 0 11 -224 -3
-238 -32 -32 -38 -14 -38 119 0 115 2 130 16 125 9 -3 20 -6 25 -6z m-176 -76
c32 -8 48 -40 33 -63 -27 -44 -98 -30 -98 19 0 42 21 56 65 44z m65 -44 c0
-10 -7 -24 -17 -31 -15 -13 -15 -12 -2 9 12 19 12 25 0 45 -13 20 -13 21 2 8
10 -7 17 -21 17 -31z m-10 -91 c0 -33 -3 -40 -16 -35 -9 3 -18 6 -20 6 -10 0
-3 59 9 63 24 10 27 6 27 -34z m215 -21 c9 -9 -33 -30 -45 -23 -19 12 -10 31
14 30 13 0 27 -3 31 -7z m-62 -22 c4 -10 -11 -25 -44 -45 -60 -37 -103 -39
-177 -7 l-53 23 42 16 c37 15 44 15 71 1 16 -8 32 -22 35 -30 3 -7 10 -14 15
-14 6 0 8 6 5 14 -4 10 6 18 31 27 20 6 41 15 47 20 13 13 22 11 28 -5z m-23
-97 c0 -51 0 -51 -22 -37 -32 21 -34 48 -7 69 13 10 25 19 27 19 1 0 2 -23 2
-51z m-130 2 c0 -7 -44 -31 -55 -31 -3 0 -5 13 -5 29 0 29 1 30 30 20 17 -6
30 -14 30 -18z m70 -4 c0 -9 -10 -12 -30 -9 -16 2 -30 8 -30 13 0 5 14 9 30 9
18 0 30 -5 30 -13z m38 -52 c23 -15 42 -34 42 -41 0 -18 -98 19 -116 43 -10
15 -12 15 -18 -3 -8 -27 -59 -57 -73 -43 -6 6 -26 14 -44 18 l-32 7 64 26 c77
33 120 31 177 -7z m-54 -31 c14 -5 16 -28 16 -144 0 -130 -1 -139 -20 -145
-11 -3 -24 -4 -29 -1 -9 6 -13 274 -4 289 5 9 16 9 37 1z m-126 -20 c12 -8 22
-26 22 -40 0 -19 -5 -24 -26 -24 -34 0 -57 -25 -57 -62 0 -35 24 -58 60 -58
19 0 23 -5 23 -30 0 -19 -5 -30 -14 -30 -8 0 -16 -5 -18 -11 -2 -6 -19 -11
-38 -12 -32 -2 -36 1 -48 38 -17 49 -18 161 -2 209 10 31 16 36 44 36 17 0 42
-7 54 -16z m274 5 c15 -8 17 -13 8 -19 -17 -11 -50 0 -50 16 0 17 14 18 42 3z
m-205 -75 c-2 -3 -12 -2 -21 2 -21 8 -21 50 2 63 15 8 17 5 20 -26 2 -19 1
-37 -1 -39z m124 66 c14 0 11 -224 -3 -238 -32 -32 -38 -14 -38 119 0 115 2
130 16 125 9 -3 20 -6 25 -6z m-176 -76 c32 -8 48 -40 33 -63 -27 -44 -98 -30
-98 19 0 42 21 56 65 44z m65 -44 c0 -10 -7 -24 -17 -31 -15 -13 -15 -12 -2 9
12 19 12 25 0 45 -13 20 -13 21 2 8 10 -7 17 -21 17 -31z m-10 -91 c0 -33 -3
-40 -16 -35 -9 3 -18 6 -20 6 -10 0 -3 59 9 63 24 10 27 6 27 -34z m215 -21
c9 -9 -33 -30 -45 -23 -19 12 -10 31 14 30 13 0 27 -3 31 -7z m605 -568 l0
-580 -167 2 -168 3 -3 578 -2 577 170 0 170 0 0 -580z m-667 546 c4 -10 -11
-25 -44 -45 -60 -37 -103 -39 -177 -7 l-53 23 42 16 c37 15 44 15 71 1 16 -8
32 -22 35 -30 3 -7 10 -14 15 -14 6 0 8 6 5 14 -4 10 6 18 31 27 20 6 41 15
47 20 13 13 22 11 28 -5z m-23 -96 l0 -50 -25 16 c-31 20 -32 47 -2 67 12 9
23 16 25 16 1 1 2 -22 2 -49z m-140 2 c-8 -3 -23 -9 -32 -14 -15 -7 -18 -4
-18 16 0 24 2 24 32 14 20 -7 27 -13 18 -16z m80 -2 c0 -6 -11 -8 -27 -4 -40
10 -41 14 -5 14 18 0 32 -5 32 -10z m28 -45 c23 -15 42 -34 42 -41 0 -18 -98
19 -116 43 -10 15 -12 15 -18 -3 -8 -27 -59 -57 -73 -43 -6 6 -26 14 -44 18
l-32 7 64 26 c77 33 120 31 177 -7z m-50 -31 c21 -6 22 -10 22 -144 0 -134 -1
-138 -22 -144 -13 -3 -26 -6 -30 -6 -5 0 -8 68 -8 150 0 83 3 150 8 150 4 0
17 -3 30 -6z m-130 -20 c12 -8 22 -26 22 -40 0 -19 -5 -24 -26 -24 -34 0 -57
-25 -57 -62 0 -35 24 -58 60 -58 19 0 23 -5 23 -30 0 -19 -5 -30 -14 -30 -8 0
-16 -5 -18 -11 -2 -6 -19 -11 -38 -12 -32 -2 -36 1 -48 38 -17 49 -18 161 -2
209 10 31 16 36 44 36 17 0 42 -7 54 -16z m82 -34 c0 -49 0 -50 -25 -38 -32
14 -33 50 -2 71 12 9 23 16 25 16 1 1 2 -21 2 -49z m192 39 c15 -8 17 -13 8
-19 -17 -11 -50 0 -50 16 0 17 14 18 42 3z m-64 -124 c2 -93 0 -109 -15 -121
-10 -7 -21 -14 -25 -14 -5 0 -8 58 -8 130 l0 129 23 -8 c21 -8 22 -15 25 -116z
m-193 39 c32 -8 48 -40 33 -63 -27 -44 -98 -30 -98 19 0 42 21 56 65 44z m65
-44 c0 -10 -7 -24 -17 -31 -15 -13 -15 -12 -2 9 12 19 12 25 0 45 -13 20 -13
21 2 8 10 -7 17 -21 17 -31z m0 -90 c0 -49 0 -50 -25 -38 -44 20 -30 73 23 87
1 1 2 -21 2 -49z m205 -22 c9 -9 -33 -30 -45 -23 -19 12 -10 31 14 30 13 0 27
-3 31 -7z m-62 -22 c4 -10 -11 -25 -44 -45 -60 -37 -103 -39 -177 -7 l-53 23
42 16 c37 15 44 15 71 1 16 -8 32 -22 35 -30 3 -7 10 -14 15 -14 6 0 8 6 5 14
-4 10 6 18 31 27 20 6 41 15 47 20 13 13 22 11 28 -5z m-13 -96 l0 -50 -25 16
c-29 19 -33 51 -7 70 28 22 32 17 32 -36z m-147 12 c15 -6 13 -9 -13 -19 -27
-10 -30 -9 -30 8 0 20 12 23 43 11z m86 -17 c-2 -2 -17 0 -34 3 l-30 6 30 6
c26 5 45 -4 34 -15z m29 -40 c23 -15 42 -34 42 -41 0 -18 -98 19 -116 43 -10
15 -12 15 -18 -3 -8 -27 -59 -57 -73 -43 -6 6 -26 14 -44 18 l-32 7 64 26 c77
33 120 31 177 -7z m-50 -31 c21 -6 22 -10 22 -144 0 -134 -1 -138 -22 -144
-13 -3 -26 -6 -30 -6 -5 0 -8 68 -8 150 0 83 3 150 8 150 4 0 17 -3 30 -6z
m-130 -20 c12 -8 22 -26 22 -40 0 -19 -5 -24 -26 -24 -34 0 -57 -25 -57 -62 0
-35 24 -58 60 -58 19 0 23 -5 23 -30 0 -19 -5 -30 -14 -30 -8 0 -16 -5 -18
-11 -2 -6 -19 -11 -38 -12 -32 -2 -36 1 -48 38 -17 49 -18 161 -2 209 10 31
16 36 44 36 17 0 42 -7 54 -16z m82 -34 c0 -49 0 -50 -25 -38 -32 14 -33 50
-2 71 12 9 23 16 25 16 1 1 2 -21 2 -49z m192 39 c15 -8 17 -13 8 -19 -17 -11
-50 0 -50 16 0 17 14 18 42 3z m-64 -124 c2 -93 0 -109 -15 -121 -10 -7 -21
-14 -25 -14 -5 0 -8 58 -8 130 l0 129 23 -8 c21 -8 22 -15 25 -116z m-193 39
c32 -8 48 -40 33 -63 -27 -44 -98 -30 -98 19 0 42 21 56 65 44z m65 -44 c0
-10 -7 -24 -17 -31 -15 -13 -15 -12 -2 9 12 19 12 25 0 45 -13 20 -13 21 2 8
10 -7 17 -21 17 -31z m0 -90 c0 -49 0 -50 -25 -38 -44 20 -30 73 23 87 1 1 2
-21 2 -49z m205 -22 c9 -9 -33 -30 -45 -23 -19 12 -10 31 14 30 13 0 27 -3 31
-7z m-62 -22 c4 -10 -11 -25 -44 -45 -60 -37 -103 -39 -177 -7 l-53 23 42 16
c37 15 44 15 71 1 16 -8 32 -22 35 -30 3 -7 10 -14 15 -14 6 0 8 6 5 14 -4 10
6 18 31 27 20 6 41 15 47 20 13 13 22 11 28 -5z m-13 -91 l0 -45 -37 20 c-41
22 -93 26 -124 10 -16 -9 -19 -7 -19 8 0 16 7 18 53 15 40 -3 59 1 82 16 42
28 45 26 45 -24z m-22 -50 c23 -15 42 -34 42 -41 0 -18 -98 19 -116 43 -10 15
-12 15 -18 -3 -8 -27 -59 -57 -73 -43 -6 6 -26 14 -44 18 l-32 7 64 26 c77 33
120 31 177 -7z m-25 -42 l47 -17 0 -112 c0 -122 -1 -124 -61 -143 -31 -10 -43
-9 -73 5 -47 23 -50 61 -6 86 23 13 30 24 30 48 0 24 -7 35 -30 48 -40 23 -39
54 3 81 39 25 32 25 90 4z m-155 -9 c12 -8 22 -26 22 -40 0 -19 -5 -24 -26
-24 -34 0 -57 -25 -57 -62 0 -35 24 -58 60 -58 19 0 23 -5 23 -30 0 -19 -5
-30 -14 -30 -8 0 -16 -5 -18 -11 -2 -6 -19 -11 -38 -12 -32 -2 -36 1 -48 38
-17 49 -18 161 -2 209 10 31 16 36 44 36 17 0 42 -7 54 -16z m274 5 c15 -8 17
-13 8 -19 -17 -11 -50 0 -50 16 0 17 14 18 42 3z m618 -509 l0 -460 -170 0
-170 0 0 460 0 460 170 0 170 0 0 -460z m-875 424 c32 -8 48 -40 33 -63 -27
-44 -98 -30 -98 19 0 42 21 56 65 44z m65 -44 c0 -10 -7 -24 -17 -31 -15 -13
-15 -12 -2 9 12 19 12 25 0 45 -13 20 -13 21 2 8 10 -7 17 -21 17 -31z m205
-112 c9 -9 -33 -30 -45 -23 -19 12 -10 31 14 30 13 0 27 -3 31 -7z m-62 -22
c4 -10 -11 -25 -44 -45 -60 -37 -103 -39 -177 -7 l-53 23 42 16 c37 15 44 15
71 1 16 -8 32 -22 35 -30 3 -7 10 -14 15 -14 6 0 8 6 5 14 -4 10 6 18 31 27
20 6 41 15 47 20 13 13 22 11 28 -5z m-23 -91 l0 -45 -37 20 c-41 22 -93 26
-124 10 -16 -9 -19 -7 -19 9 0 17 6 19 58 14 45 -3 63 0 87 16 17 11 31 20 33
20 1 1 2 -19 2 -44z m-22 -50 c23 -15 42 -34 42 -41 0 -18 -98 19 -116 43 -10
15 -12 15 -18 -3 -8 -27 -59 -57 -73 -43 -6 6 -26 14 -44 18 l-32 7 64 26 c77
33 120 31 177 -7z m-25 -42 l47 -17 0 -112 c0 -122 -1 -124 -61 -143 -31 -10
-43 -9 -73 5 -47 23 -50 61 -6 86 23 13 30 24 30 48 0 24 -7 35 -30 48 -40 23
-39 54 3 81 39 25 32 25 90 4z m-155 -9 c12 -8 22 -26 22 -40 0 -19 -5 -24
-26 -24 -34 0 -57 -25 -57 -62 0 -35 24 -58 60 -58 19 0 23 -5 23 -30 0 -19
-5 -30 -14 -30 -8 0 -16 -5 -18 -11 -2 -6 -19 -11 -38 -12 -32 -2 -36 1 -48
38 -17 49 -18 161 -2 209 10 31 16 36 44 36 17 0 42 -7 54 -16z m274 5 c15 -8
17 -13 8 -19 -17 -11 -50 0 -50 16 0 17 14 18 42 3z m-257 -85 c32 -8 48 -40
33 -63 -27 -44 -98 -30 -98 19 0 42 21 56 65 44z m65 -44 c0 -10 -7 -24 -17
-31 -15 -13 -15 -12 -2 9 12 19 12 25 0 45 -13 20 -13 21 2 8 10 -7 17 -21 17
-31z m205 -112 c9 -9 -33 -30 -45 -23 -19 12 -10 31 14 30 13 0 27 -3 31 -7z
m-62 -22 c4 -10 -11 -25 -44 -45 -60 -37 -103 -39 -177 -7 l-53 23 42 16 c37
15 44 15 71 1 16 -8 32 -22 35 -30 3 -7 10 -14 15 -14 6 0 8 6 5 14 -4 10 6
18 31 27 20 6 41 15 47 20 13 13 22 11 28 -5z m-23 -92 l0 -45 -29 20 c-16 12
-35 21 -43 21 -9 0 48 41 70 49 1 1 2 -20 2 -45z m-155 6 c-3 -5 -10 -10 -16
-10 -5 0 -9 5 -9 10 0 6 7 10 16 10 8 0 12 -4 9 -10z m123 -45 c23 -15 42 -34
42 -41 0 -18 -98 19 -116 43 -10 15 -12 15 -18 -3 -8 -27 -59 -57 -73 -43 -6
6 -26 14 -44 18 l-32 7 64 26 c77 33 120 31 177 -7z m-18 -45 l45 -19 -85 0
-85 -1 30 20 c36 24 38 24 95 0z m-162 -6 c12 -8 22 -26 22 -40 0 -19 -5 -24
-26 -24 -34 0 -57 -25 -57 -62 0 -35 24 -58 60 -58 19 0 23 -5 23 -30 0 -19
-5 -30 -14 -30 -8 0 -16 -5 -18 -11 -2 -6 -19 -11 -38 -12 -32 -2 -36 1 -48
38 -17 49 -18 161 -2 209 10 31 16 36 44 36 17 0 42 -7 54 -16z m274 5 c15 -8
17 -13 8 -19 -17 -11 -50 0 -50 16 0 17 14 18 42 3z m-192 -59 c0 -28 -1 -29
-25 -18 -14 6 -25 19 -25 30 0 13 7 18 25 18 21 0 25 -5 25 -30z m70 -94 c0
-109 -1 -114 -22 -120 -13 -3 -26 -6 -30 -6 -5 0 -8 54 -8 120 l0 120 30 0 30
0 0 -114z m60 18 c0 -80 -3 -99 -17 -110 -10 -7 -21 -14 -25 -14 -5 0 -8 50
-8 110 l0 110 25 0 c25 0 25 0 25 -96z m-195 50 c32 -8 48 -40 33 -63 -27 -44
-98 -30 -98 19 0 42 21 56 65 44z m65 -44 c0 -10 -7 -24 -17 -31 -15 -13 -15
-12 -2 9 12 19 12 25 0 45 -13 20 -13 21 2 8 10 -7 17 -21 17 -31z m820 -540
l-1 -580 -169 0 -170 0 0 580 1 580 169 0 170 0 0 -580z m-820 450 c0 -49 0
-50 -25 -38 -44 20 -30 73 23 87 1 1 2 -21 2 -49z m205 -22 c9 -9 -33 -30 -45
-23 -19 12 -10 31 14 30 13 0 27 -3 31 -7z m-62 -22 c4 -10 -11 -25 -44 -45
-60 -37 -103 -39 -177 -7 l-53 23 42 16 c37 15 44 15 71 1 16 -8 32 -22 35
-30 3 -7 10 -14 15 -14 6 0 8 6 5 14 -4 10 6 18 31 27 20 6 41 15 47 20 13 13
22 11 28 -5z m-13 -101 l0 -55 -25 16 c-30 19 -33 60 -7 80 28 22 32 17 32
-41z m-152 19 c30 -8 28 -17 -8 -31 -28 -11 -30 -10 -30 13 0 26 3 27 38 18z
m90 -29 c-6 -6 -58 7 -58 16 0 14 55 15 58 1 2 -8 2 -15 0 -17z m30 -40 c23
-15 42 -34 42 -41 0 -18 -98 19 -116 43 -10 15 -12 15 -18 -3 -8 -27 -59 -57
-73 -43 -6 6 -26 14 -44 18 l-32 7 64 26 c77 33 120 31 177 -7z m-50 -31 c21
-6 22 -10 22 -144 0 -134 -1 -138 -22 -144 -13 -3 -26 -6 -30 -6 -5 0 -8 68
-8 150 0 83 3 150 8 150 4 0 17 -3 30 -6z m-130 -20 c12 -8 22 -26 22 -40 0
-19 -5 -24 -26 -24 -34 0 -57 -25 -57 -62 0 -35 24 -58 60 -58 19 0 23 -5 23
-30 0 -19 -5 -30 -14 -30 -8 0 -16 -5 -18 -11 -2 -6 -19 -11 -38 -12 -32 -2
-36 1 -48 38 -17 49 -18 161 -2 209 10 31 16 36 44 36 17 0 42 -7 54 -16z m82
-34 c0 -49 0 -50 -25 -38 -32 14 -33 50 -2 71 12 9 23 16 25 16 1 1 2 -21 2
-49z m192 39 c15 -8 17 -13 8 -19 -17 -11 -50 0 -50 16 0 17 14 18 42 3z m-64
-124 c2 -93 0 -109 -15 -121 -10 -7 -21 -14 -25 -14 -5 0 -8 58 -8 130 l0 129
23 -8 c21 -8 22 -15 25 -116z m-193 39 c32 -8 48 -40 33 -63 -27 -44 -98 -30
-98 19 0 42 21 56 65 44z m65 -44 c0 -10 -7 -24 -17 -31 -15 -13 -15 -12 -2 9
12 19 12 25 0 45 -13 20 -13 21 2 8 10 -7 17 -21 17 -31z m0 -90 c0 -49 0 -50
-25 -38 -44 20 -30 73 23 87 1 1 2 -21 2 -49z m205 -22 c9 -9 -33 -30 -45 -23
-19 12 -10 31 14 30 13 0 27 -3 31 -7z m-62 -22 c4 -10 -11 -25 -44 -45 -60
-37 -103 -39 -177 -7 l-53 23 42 16 c37 15 44 15 71 1 16 -8 32 -22 35 -30 3
-7 10 -14 15 -14 6 0 8 6 5 14 -4 10 6 18 31 27 20 6 41 15 47 20 13 13 22 11
28 -5z m-13 -223 c-1 -140 -3 -174 -12 -158 -7 11 -18 26 -25 33 -9 10 -13 49
-13 144 0 113 2 133 18 144 9 7 20 14 25 14 4 0 7 -80 7 -177z m-152 141 c20
-6 22 -13 22 -67 0 -47 -3 -58 -12 -49 -7 7 -20 12 -30 12 -15 0 -18 9 -18 55
0 57 1 59 38 49z m91 -106 c0 -94 -2 -109 -12 -88 -6 14 -20 34 -29 44 -13 15
-18 37 -18 82 0 61 1 63 28 67 15 2 28 5 30 6 1 0 2 -50 1 -111z m-218 -19
c33 -35 35 -47 15 -74 -14 -19 -15 -19 -34 -2 -30 27 -75 4 -87 -46 -5 -20 -1
-32 18 -49 22 -21 24 -26 11 -43 -23 -31 -114 -20 -114 14 0 27 41 123 64 150
35 40 80 81 89 81 5 0 22 -14 38 -31z m131 -76 c16 -14 18 -33 18 -161 l0
-145 -22 29 c-13 16 -26 31 -30 32 -5 2 -8 62 -8 133 0 135 4 146 42 112z
m-139 -23 c9 -11 16 -24 16 -28 -1 -4 -1 -16 1 -27 l1 -20 10 20 c8 19 9 19 6
1 -1 -14 -11 -19 -37 -21 -71 -3 -104 31 -73 74 18 27 54 27 76 1z m193 -73
c-3 -13 0 -17 9 -13 20 7 25 -16 25 -110 l0 -84 -30 0 -30 0 0 126 c0 114 2
125 16 113 8 -7 13 -21 10 -32z m58 7 c4 -9 4 -19 1 -22 -7 -8 -35 19 -29 29
8 14 21 11 28 -7z m36 -104 c0 -33 -4 -60 -10 -60 -5 0 -10 -11 -10 -25 0 -16
-6 -25 -15 -25 -12 0 -15 16 -15 85 0 84 0 85 25 85 24 0 25 -3 25 -60z m-353
-118 c-15 -3 -17 -16 -17 -103 0 -81 -3 -99 -15 -99 -13 0 -15 21 -15 126 l0
125 32 -23 c26 -18 29 -23 15 -26z m1043 -182 l0 -230 -251 0 -250 0 1 68 c1
37 1 129 1 205 l-1 137 -100 0 -100 0 0 25 0 25 350 0 350 0 0 -230z m-849
210 c5 0 9 -4 9 -10 0 -5 -11 -10 -25 -10 -16 0 -25 6 -25 16 0 11 5 14 16 10
9 -3 20 -6 25 -6z m207 -47 c-76 -2 -200 -2 -275 0 -76 1 -14 3 137 3 151 0
213 -2 138 -3z m132 -28 c0 -13 -37 -15 -270 -15 -233 0 -270 2 -270 15 0 13
37 15 270 15 233 0 270 -2 270 -15z m0 -300 l0 -275 -270 0 -270 0 0 275 0
275 270 0 270 0 0 -275z m0 -555 l0 -270 -270 0 -270 0 0 270 0 270 270 0 270
0 0 -270z m-550 -240 c0 -29 4 -40 15 -40 12 0 15 -13 15 -60 0 -57 -1 -60
-25 -60 l-25 0 0 100 c0 60 4 100 10 100 6 0 10 -18 10 -40z m110 -100 l0 -60
-35 0 -35 0 0 60 0 60 35 0 35 0 0 -60z m330 -645 l0 -705 -166 0 -167 0 6 68
c4 37 7 354 7 705 l0 637 160 0 160 0 0 -705z m-680 492 c0 -2 -32 -16 -70
-31 -39 -16 -75 -37 -81 -47 -33 -63 -30 -230 6 -285 19 -30 153 -78 202 -72
21 3 46 8 56 12 15 7 17 1 17 -73 l0 -81 -26 10 c-14 6 -37 10 -52 10 -40 0
-181 -60 -193 -82 -33 -61 -29 -229 6 -284 16 -25 142 -74 191 -74 20 0 44 5
55 10 17 10 19 7 19 -30 l0 -40 -205 0 -205 0 0 530 0 530 140 0 c77 0 140 -2
140 -3z m130 -13 c0 -12 -4 -14 -12 -7 -7 6 -20 13 -28 16 -9 3 -3 6 13 6 19
1 27 -4 27 -15z m1170 -514 l0 -530 -107 1 -108 0 51 24 c55 25 65 41 78 133
8 51 -9 157 -29 188 -16 25 -142 74 -191 74 -19 0 -48 -7 -64 -15 l-30 -16 0
90 0 90 28 -15 c15 -7 41 -14 57 -14 43 0 184 59 196 82 33 62 29 229 -6 284
-19 30 -153 78 -202 72 -21 -3 -46 -8 -55 -12 -16 -7 -18 -2 -18 43 l0 51 200
0 200 0 0 -530z m-1172 485 c23 -15 42 -34 42 -41 0 -18 -98 19 -116 43 -10
15 -12 15 -18 -3 -8 -27 -59 -57 -73 -43 -6 6 -26 14 -44 18 l-32 7 64 26 c77
33 120 31 177 -7z m702 -50 l0 -45 -45 0 -45 0 0 45 0 45 45 0 45 0 0 -45z
m-735 11 l35 -15 0 -124 0 -124 -39 -12 c-86 -25 -153 50 -81 91 23 13 30 24
30 48 0 24 -7 35 -30 48 -40 23 -39 54 3 81 38 25 39 25 82 7z m-147 -12 c12
-8 22 -26 22 -40 0 -19 -5 -24 -26 -24 -34 0 -57 -25 -57 -62 0 -35 24 -58 60
-58 19 0 23 -5 23 -30 0 -19 -5 -30 -14 -30 -8 0 -16 -5 -18 -11 -2 -6 -19
-11 -38 -12 -32 -2 -36 1 -48 38 -17 49 -18 161 -2 209 10 31 16 36 44 36 17
0 42 -7 54 -16z m274 5 c15 -8 17 -13 8 -19 -17 -11 -50 0 -50 16 0 17 14 18
42 3z m856 -23 l53 -23 -42 -16 c-37 -15 -44 -15 -71 -1 -16 8 -32 22 -35 30
-3 7 -10 14 -15 14 -6 0 -8 -6 -5 -14 4 -10 -6 -18 -31 -27 -20 -6 -43 -17
-51 -23 -14 -11 -15 -9 -24 19 -1 3 18 19 43 35 56 36 106 38 178 6z m-63 -53
c46 -22 49 -60 5 -85 -43 -24 -42 -72 0 -96 41 -23 37 -57 -10 -84 -33 -19
-37 -20 -72 -5 l-38 16 0 124 0 124 33 11 c44 14 42 14 82 -5z m163 -28 c17
-49 18 -162 2 -209 -10 -31 -16 -36 -44 -36 -42 0 -76 25 -76 56 0 19 5 24 26
24 34 0 57 25 57 62 0 35 -24 58 -60 58 -19 0 -23 5 -23 30 0 20 5 30 15 30 8
0 15 4 15 9 0 11 27 20 55 18 14 -2 24 -14 33 -42z m-330 14 c2 -11 -6 -14
-25 -13 -40 2 -40 3 -18 19 22 17 39 15 43 -6z m-883 5 c32 -8 48 -40 33 -63
-27 -44 -98 -30 -98 19 0 42 21 56 65 44z m65 -44 c0 -10 -7 -24 -17 -31 -15
-13 -15 -12 -2 9 12 19 12 25 0 45 -13 20 -13 21 2 8 10 -7 17 -21 17 -31z
m1083 -44 c21 -16 22 -59 2 -76 -19 -16 -67 -4 -83 20 -19 31 7 65 53 69 6 0
18 -6 28 -13z m-95 -16 c-10 -16 -10 -24 1 -42 13 -21 13 -22 -2 -9 -20 16
-22 42 -5 59 18 18 20 15 6 -8z m-783 -52 c9 -9 -33 -30 -45 -23 -19 12 -10
31 14 30 13 0 27 -3 31 -7z m-62 -22 c4 -10 -11 -25 -44 -45 -60 -37 -103 -39
-177 -7 l-53 23 42 16 c37 15 44 15 71 1 16 -8 32 -22 35 -30 3 -7 10 -14 15
-14 6 0 8 6 5 14 -4 10 6 18 31 27 20 6 41 15 47 20 13 13 22 11 28 -5z m677
-72 c0 -17 -14 -18 -42 -3 -15 8 -17 13 -8 19 17 11 50 0 50 -16z m-560 -39
l0 -45 -45 0 -45 0 0 45 0 45 45 0 45 0 0 -45z m686 -12 c10 -15 12 -15 18 3
8 27 59 57 73 43 6 -6 26 -14 44 -18 32 -6 31 -7 -40 -35 -48 -19 -82 -26
-101 -22 -38 7 -110 55 -110 72 0 18 98 -19 116 -43z m-838 -128 c23 -15 42
-34 42 -41 0 -18 -98 19 -116 43 -10 15 -12 15 -18 -3 -8 -27 -59 -57 -73 -43
-6 6 -26 14 -44 18 l-32 7 64 26 c77 33 120 31 177 -7z m692 -60 l0 -45 -45 0
-45 0 0 45 0 45 45 0 45 0 0 -45z m-731 24 l31 -11 0 -128 0 -128 -34 -12
c-28 -9 -40 -8 -70 6 -47 23 -50 61 -6 86 23 13 30 24 30 48 0 24 -7 35 -30
48 -40 23 -39 54 3 81 38 24 35 24 76 10z m-141 -15 c12 -8 22 -26 22 -40 0
-19 -5 -24 -26 -24 -34 0 -57 -25 -57 -62 0 -35 24 -58 60 -58 19 0 23 -5 23
-30 0 -19 -5 -30 -14 -30 -8 0 -16 -5 -18 -11 -2 -6 -19 -11 -38 -12 -32 -2
-36 1 -48 38 -17 49 -18 161 -2 209 10 31 16 36 44 36 17 0 42 -7 54 -16z
m274 5 c15 -8 17 -13 8 -19 -17 -11 -50 0 -50 16 0 17 14 18 42 3z m856 -23
l53 -23 -42 -16 c-37 -15 -44 -15 -71 -1 -16 8 -32 22 -35 30 -3 7 -10 14 -15
14 -6 0 -8 -6 -5 -14 4 -10 -6 -18 -31 -27 -20 -6 -43 -17 -51 -23 -14 -11
-15 -9 -24 19 -1 3 18 19 43 35 56 36 106 38 178 6z m-63 -53 c46 -22 49 -60
5 -85 -23 -13 -30 -24 -30 -48 0 -24 7 -35 30 -48 42 -24 39 -55 -6 -82 -34
-22 -36 -22 -80 -5 l-45 17 3 121 3 120 35 13 c46 16 44 17 85 -3z m163 -28
c17 -49 18 -162 2 -209 -10 -31 -16 -36 -44 -36 -42 0 -76 25 -76 56 0 19 5
24 26 24 34 0 57 25 57 62 0 35 -24 58 -60 58 -19 0 -23 5 -23 30 0 20 5 30
15 30 8 0 15 4 15 9 0 11 27 20 55 18 14 -2 24 -14 33 -42z m-330 14 c2 -11
-6 -14 -25 -13 -40 2 -40 3 -18 19 22 17 39 15 43 -6z m-883 5 c32 -8 48 -40
33 -63 -27 -44 -98 -30 -98 19 0 42 21 56 65 44z m65 -44 c0 -10 -7 -24 -17
-31 -15 -13 -15 -12 -2 9 12 19 12 25 0 45 -13 20 -13 21 2 8 10 -7 17 -21 17
-31z m1083 -44 c21 -16 22 -59 2 -76 -19 -16 -67 -4 -83 20 -19 31 7 65 53 69
6 0 18 -6 28 -13z m-95 -16 c-10 -16 -10 -24 1 -42 13 -21 13 -22 -2 -9 -20
16 -22 42 -5 59 18 18 20 15 6 -8z m-783 -52 c9 -9 -33 -30 -45 -23 -19 12
-10 31 14 30 13 0 27 -3 31 -7z m-62 -22 c4 -10 -11 -25 -44 -45 -60 -37 -103
-39 -177 -7 l-53 23 42 16 c37 15 44 15 71 1 16 -8 32 -22 35 -30 3 -7 10 -14
15 -14 6 0 8 6 5 14 -4 10 6 18 31 27 20 6 41 15 47 20 13 13 22 11 28 -5z
m677 -72 c0 -17 -14 -18 -42 -3 -15 8 -17 13 -8 19 17 11 50 0 50 -16z m126
-51 c10 -15 12 -15 18 3 8 27 59 57 73 43 6 -6 26 -14 44 -18 32 -6 31 -7 -40
-35 -48 -19 -82 -26 -101 -22 -38 7 -110 55 -110 72 0 18 98 -19 116 -43z
m-696 2 l0 -45 -45 0 -45 0 0 45 0 45 45 0 45 0 0 -45z"/>
<path d="M4272 9585 c-28 -50 -29 -55 -11 -55 17 0 19 -7 19 -65 0 -63 1 -65
25 -65 24 0 25 2 25 65 0 58 2 65 20 65 18 0 17 4 -11 53 -17 28 -32 53 -33
54 -1 1 -16 -22 -34 -52z"/>
<path d="M4282 8765 c-28 -50 -29 -55 -11 -55 17 0 19 -7 19 -65 0 -63 1 -65
25 -65 24 0 25 2 25 65 0 58 2 65 20 65 18 0 17 4 -11 53 -17 28 -32 53 -33
54 -1 1 -16 -22 -34 -52z"/>
<path d="M4282 7955 c-28 -50 -29 -55 -11 -55 17 0 19 -7 19 -65 0 -63 1 -65
25 -65 24 0 25 2 25 65 0 58 2 65 20 65 18 0 17 4 -11 53 -17 28 -32 53 -33
54 -1 1 -16 -22 -34 -52z"/>
<path d="M4292 7135 c-28 -50 -29 -55 -11 -55 17 0 19 -7 19 -65 0 -63 1 -65
25 -65 24 0 25 2 25 65 0 58 2 65 20 65 18 0 17 4 -11 53 -17 28 -32 53 -33
54 -1 1 -16 -22 -34 -52z"/>
<path d="M4282 6165 c-28 -50 -29 -55 -11 -55 17 0 19 -7 19 -65 0 -63 1 -65
25 -65 24 0 25 2 25 65 0 58 2 65 20 65 18 0 17 4 -11 53 -17 28 -32 53 -33
54 -1 1 -16 -22 -34 -52z"/>
<path d="M4292 5345 c-28 -50 -29 -55 -11 -55 17 0 19 -7 19 -65 0 -63 1 -65
25 -65 24 0 25 2 25 65 0 58 2 65 20 65 18 0 17 4 -11 53 -17 28 -32 53 -33
54 -1 1 -16 -22 -34 -52z"/>
<path d="M4521 7184 c0 -11 3 -14 6 -6 3 7 2 16 -1 19 -3 4 -6 -2 -5 -13z"/>
<path d="M4661 6704 c0 -11 3 -14 6 -6 3 7 2 16 -1 19 -3 4 -6 -2 -5 -13z"/>
<path d="M4661 5544 c0 -11 3 -14 6 -6 3 7 2 16 -1 19 -3 4 -6 -2 -5 -13z"/>
<path d="M4465 4720 c-3 -6 1 -7 9 -4 18 7 21 14 7 14 -6 0 -13 -4 -16 -10z"/>
<path d="M5425 8602 c-39 -3 -75 -15 -142 -50 -35 -18 -64 -72 -38 -72 7 0 17
-9 20 -20 3 -11 10 -20 15 -20 5 0 12 -10 15 -21 4 -12 10 -17 14 -12 15 24
49 24 74 -1 33 -33 77 -23 92 20 17 51 37 56 79 17 27 -25 28 -29 22 -87 -3
-33 -12 -64 -19 -69 -9 -6 -9 -10 0 -13 7 -3 10 -11 7 -17 -2 -7 6 -24 18 -37
l23 -24 6 29 c4 17 13 53 20 80 7 28 14 70 15 95 l3 45 -9 -48 c-5 -27 -13
-54 -19 -61 -6 -7 -9 -15 -6 -18 3 -3 -1 -11 -10 -18 -12 -10 -15 -9 -16 6 -2
48 4 99 12 102 13 5 11 22 -3 22 -7 1 -24 10 -37 20 -19 17 -22 26 -16 56 4
24 3 34 -4 29 -6 -3 -11 -15 -11 -25 0 -18 -27 -40 -48 -40 -5 0 -12 14 -16
31 -3 17 -10 28 -16 24 -5 -3 -10 -1 -10 4 0 16 -43 13 -65 -3 -13 -9 -19 -26
-19 -50 0 -64 -59 -57 -95 11 -9 17 -8 25 6 38 25 25 103 58 143 61 19 1 40 3
45 4 6 1 25 2 43 1 23 -1 32 -6 32 -18 0 -9 3 -13 7 -10 3 4 13 1 21 -6 13
-10 14 -9 4 10 -7 12 -16 24 -21 27 -13 8 -70 12 -116 8z m35 -125 c0 -38 -23
-59 -53 -52 -52 13 -55 89 -5 97 35 5 58 -13 58 -45z m-5 -67 c-3 -5 -12 -10
-18 -10 -7 0 -6 4 3 10 19 12 23 12 15 0z m151 -146 c-3 -9 -6 -20 -6 -25 0
-6 -4 -7 -10 -4 -16 10 -12 45 6 45 11 0 14 -5 10 -16z"/>
<path d="M5580 8525 c7 -8 17 -15 22 -15 5 0 3 7 -6 15 -8 8 -18 15 -22 15 -3
0 -1 -7 6 -15z"/>
<path d="M5616 8478 c10 -14 21 -24 23 -22 3 3 -6 15 -18 27 l-24 22 19 -27z"/>
<path d="M5231 8463 c0 -6 -4 -20 -7 -30 -5 -14 -4 -15 5 -7 7 7 11 20 8 30
-3 11 -5 14 -6 7z"/>
<path d="M5278 8354 c-14 -32 -15 -35 0 -29 8 3 19 0 24 -7 5 -9 8 -10 8 -1 0
6 -4 14 -10 18 -6 4 -6 15 0 30 14 38 -3 29 -22 -11z"/>
<path d="M5226 8345 c6 -42 13 -56 52 -94 36 -36 35 -20 -1 19 -18 18 -38 52
-44 74 l-13 41 6 -40z"/>
<path d="M5316 8288 c4 -7 14 -21 23 -31 14 -17 14 -19 -1 -28 -11 -6 -15 -16
-11 -27 7 -19 41 -52 54 -52 4 0 9 8 11 18 6 29 -4 72 -16 72 -6 0 -20 14 -31
30 -19 29 -44 44 -29 18z m60 -115 c-3 -4 -13 2 -20 13 -11 14 -12 22 -3 33 9
11 13 8 20 -14 5 -14 6 -29 3 -32z"/>
<path d="M3690 5034 c0 -6 7 -19 16 -30 14 -18 14 -18 3 6 -14 31 -19 36 -19
24z"/>
<path d="M3800 4949 c0 -5 5 -7 10 -4 6 3 10 8 10 11 0 2 -4 4 -10 4 -5 0 -10
-5 -10 -11z"/>
<path d="M7643 3803 l1167 -3 0 -100 0 -100 -1167 -3 -1168 -2 1208 -3 1207
-2 0 110 0 110 -1207 -2 -1208 -3 1168 -2z m1237 -103 l0 -100 -30 0 -30 0 0
100 0 100 30 0 30 0 0 -100z"/>
<path d="M0 3320 l0 -240 40 0 40 0 0 -345 0 -345 75 0 c72 0 75 -1 75 -24 0
-21 -8 -26 -70 -41 l-70 -17 0 -554 0 -554 70 0 70 0 0 -290 0 -290 -70 0 -70
0 0 -90 0 -90 425 0 425 0 0 133 0 134 767 6 c421 4 1317 7 1990 7 1171 0
1223 -1 1223 -18 0 -10 -5 -23 -12 -30 -9 -9 -400 -12 -1698 -12 -1872 0
-1729 5 -1853 -67 -79 -47 -76 -45 -161 -129 -91 -92 -90 -90 -139 -187 -39
-77 -42 -88 -45 -179 l-4 -98 221 0 221 0 0 33 c0 47 32 97 94 145 l29 22
1679 0 1678 0 64 29 c224 101 336 262 336 480 -1 189 -96 343 -263 426 -68 33
-90 39 -163 43 -58 3 -84 1 -84 -7 0 -6 -7 -11 -15 -11 -8 0 -15 5 -15 10 0 6
-86 10 -239 10 l-240 0 -4 53 -3 52 -2 -52 -2 -53 -259 0 -260 0 -4 32 -4 33
-1 -32 c-2 -26 -6 -33 -22 -33 -11 0 -20 -4 -20 -10 0 -5 -11 -10 -25 -10 -14
0 -25 5 -25 10 0 7 -227 10 -660 10 l-660 0 0 65 0 65 660 0 c433 0 660 3 660
10 0 6 -12 11 -27 11 l-28 1 30 8 30 8 -27 1 -28 1 0 109 0 110 28 4 27 4 -27
2 c-35 1 -37 21 -3 21 14 0 25 5 25 10 0 7 -227 10 -660 10 l-660 0 0 35 0 35
-100 0 -100 0 0 -35 0 -35 -180 0 -180 0 0 603 c-1 331 0 675 0 765 1 137 -1
162 -14 162 -8 0 -18 -4 -21 -10 -4 -6 -130 -10 -345 -10 -215 0 -341 4 -345
10 -13 21 -25 9 -25 -25 0 -19 -4 -35 -10 -35 -6 0 -10 87 -10 240 l0 240
-515 0 -515 0 0 -240z m1020 0 l0 -230 -158 0 -158 0 4 35 c5 44 -52 191 -80
206 -61 33 -229 29 -284 -6 -27 -17 -74 -143 -74 -196 l0 -39 -130 0 -130 0 0
230 0 230 505 0 505 0 0 -230z m-422 8 c27 -8 32 -14 32 -42 0 -42 -25 -76
-56 -76 -19 0 -24 5 -24 26 0 34 -25 57 -62 57 -35 0 -58 -24 -58 -60 0 -19
-5 -23 -30 -23 -20 0 -30 5 -30 15 0 8 -4 15 -9 15 -15 0 -25 60 -12 73 30 30
170 39 249 15z m77 -109 c18 -47 25 -80 21 -99 -7 -38 -55 -110 -72 -110 -18
0 19 98 43 116 15 10 15 12 -3 18 -11 3 -27 18 -36 34 -14 24 -14 30 -2 46 8
11 14 30 14 43 0 13 2 23 3 23 2 0 16 -32 32 -71z m-331 -50 c-8 -17 -22 -33
-30 -36 -7 -3 -14 -10 -14 -15 0 -6 6 -8 14 -5 10 4 18 -6 27 -31 6 -20 15
-41 20 -47 13 -13 11 -22 -5 -28 -21 -8 -76 84 -76 128 0 19 10 59 23 90 l22
55 17 -41 c16 -37 16 -43 2 -70z m186 96 c16 -19 4 -67 -20 -83 -41 -25 -85
35 -58 78 15 24 60 27 78 5z m-88 -95 c13 -23 24 -30 48 -30 24 0 35 7 48 30
23 41 55 39 82 -5 13 -22 19 -42 15 -55 -6 -19 -15 -20 -145 -20 -127 0 -139
2 -145 19 -3 10 2 35 12 55 22 47 60 50 85 6z m71 -1 c20 13 21 13 8 -2 -7
-10 -21 -17 -31 -17 -10 0 -24 7 -31 17 -13 15 -12 15 9 2 19 -12 25 -12 45 0z
m554 -271 c-1 -46 -3 -9 -3 82 0 91 2 128 3 83 2 -46 2 -120 0 -165z m723 86
c0 -107 -3 -155 -11 -152 -7 2 -11 54 -10 151 0 81 0 149 1 152 0 3 5 5 10 5
6 0 10 -59 10 -156z m-30 71 l0 -65 -340 0 -340 0 0 65 0 65 340 0 340 0 0
-65z m-1452 -22 c13 -21 31 -53 40 -72 20 -40 38 -50 45 -24 16 59 17 73 3 73
-7 0 -16 8 -20 18 -3 9 -9 23 -12 30 -4 9 24 12 125 12 l130 0 -10 -30 c-6
-16 -18 -30 -26 -30 -8 0 -11 -5 -7 -12 4 -7 8 -22 9 -35 1 -25 25 -54 31 -38
2 6 19 39 37 75 l32 65 108 3 107 3 0 -106 0 -105 -405 0 -405 0 0 105 0 105
98 0 97 0 23 -37z m732 -58 l0 -95 -65 0 -65 0 0 95 0 95 65 0 65 0 0 -95z
m-655 1 c0 -13 -3 -27 -7 -31 -9 -9 -30 33 -23 45 12 19 31 10 30 -14z m245
13 c0 -6 -5 -20 -11 -31 -13 -25 -30 -7 -22 23 6 20 33 27 33 8z m1130 -74 l0
-65 -340 0 -340 0 0 65 0 65 340 0 340 0 0 -65z m-710 -607 c0 -310 0 -681 0
-825 l-1 -262 353 2 353 2 -337 2 c-291 3 -338 5 -338 18 0 23 675 23 684 0 3
-8 12 -15 21 -15 11 0 15 11 15 40 l0 40 50 0 50 0 0 -60 0 -60 -480 0 -480 0
0 554 0 554 -70 17 c-67 16 -70 19 -70 46 0 28 1 29 55 29 l55 0 0 240 0 240
70 0 70 0 0 -562z m-150 317 l0 -225 -405 0 -405 0 0 225 0 225 405 0 405 0 0
-225z m862 168 c1 -44 2 -45 5 -10 2 20 8 37 14 37 5 0 9 -204 9 -525 0 -343
-3 -525 -10 -525 -5 0 -10 21 -11 48 0 26 -1 90 -1 142 -1 52 -3 76 -5 53 l-4
-43 -340 0 -339 0 0 90 0 90 339 0 c260 0 340 -3 343 -12 3 -7 5 8 5 32 0 25
-2 33 -4 18 l-4 -28 -340 0 -339 0 -2 28 c-1 15 -5 -79 -8 -208 -4 -163 -6
-70 -6 300 -1 294 2 519 6 500 7 -34 7 -34 9 13 l1 47 340 0 340 0 2 -47z
m-972 -1378 l0 -965 -275 0 -275 0 0 965 0 965 275 0 275 0 0 -965z m970 500
l0 -45 -340 0 -340 0 0 45 0 45 340 0 340 0 0 -45z m2 -102 c2 -27 2 -81 0
-120 l-4 -73 -339 0 -339 0 0 120 0 120 339 0 340 0 3 -47z m28 -313 c0 -167
-4 -260 -10 -260 -5 0 -10 6 -10 13 -1 11 -1 268 0 440 0 38 4 67 10 67 6 0
10 -93 10 -260z m-723 -142 c-1 -73 -3 -16 -3 127 0 143 2 203 3 133 2 -70 2
-187 0 -260z m1283 292 l0 -30 -90 0 -90 0 0 30 0 30 90 0 90 0 0 -30z m-590
-100 l0 -60 -127 -2 -128 -2 128 -3 127 -4 0 -64 0 -65 -340 0 -340 0 0 65 0
65 128 2 127 2 -127 3 -128 4 0 59 0 60 340 0 340 0 0 -60z m1373 43 c-244 -2
-642 -2 -885 0 -244 1 -45 2 442 2 487 0 686 -1 443 -2z m487 -3 c0 -5 -9 -10
-20 -10 -11 0 -20 5 -20 10 0 6 9 10 20 10 11 0 20 -4 20 -10z m-922 -17
l-848 -3 0 -110 0 -110 848 -3 847 -2 -862 -3 -863 -2 0 120 0 120 863 -2 862
-3 -847 -2z m902 -113 c0 -91 -3 -110 -15 -110 -12 0 -15 19 -15 110 0 91 3
110 15 110 12 0 15 -19 15 -110z m17 -57 c-2 -32 -3 -6 -3 57 0 63 1 89 3 58
2 -32 2 -84 0 -115z m-87 57 l0 -100 -835 0 -835 0 0 100 0 100 835 0 835 0 0
-100z m30 0 c0 -60 -4 -100 -10 -100 -6 0 -10 40 -10 100 0 60 4 100 10 100 6
0 10 -40 10 -100z m-1800 -155 l0 -35 -340 0 -340 0 0 35 0 35 340 0 340 0 0
-35z m1853 28 c-7 -2 -21 -2 -30 0 -10 3 -4 5 12 5 17 0 24 -2 18 -5z m-485
-10 c-240 -2 -636 -2 -880 0 -244 1 -47 2 437 2 484 0 683 -1 443 -2z m-778
-63 l0 -40 -220 0 -220 0 0 40 0 40 220 0 220 0 0 -40z m0 -60 c0 -6 -80 -10
-220 -10 -140 0 -220 4 -220 10 0 6 80 10 220 10 140 0 220 -4 220 -10z m2638
-60 c2 -5 24 -19 50 -31 59 -29 199 -168 184 -184 -3 -3 0 -5 7 -5 7 0 10 -4
7 -8 -7 -11 15 -82 25 -82 5 0 6 -14 3 -30 -4 -17 -2 -30 4 -30 23 0 -10 -186
-48 -267 -16 -35 -29 -66 -29 -68 -1 -16 -131 -118 -190 -149 l-69 -36 -1686
0 c-1117 0 -1686 3 -1686 10 0 6 -4 10 -10 10 -5 0 -10 -7 -10 -15 0 -8 -6
-12 -14 -9 -9 3 -17 -3 -21 -15 -3 -12 -12 -21 -20 -21 -18 0 -85 -68 -85 -86
0 -8 -7 -17 -15 -20 -8 -4 -15 -12 -15 -20 0 -8 -6 -14 -13 -14 -8 0 -19 -11
-25 -25 -12 -25 -12 -25 -157 -25 l-145 0 0 70 c0 171 146 374 353 490 114 64
-10 60 1830 60 1545 0 1682 2 1699 17 11 10 18 30 18 51 l0 35 -2060 -6 -2060
-5 0 211 0 212 2087 -3 c1222 -2 2089 -7 2091 -12z"/>
<path d="M1072 2560 c0 -80 2 -139 5 -132 7 18 679 18 685 0 3 -7 5 8 5 32 0
25 -2 33 -4 18 l-4 -28 -340 0 -339 0 0 45 0 45 339 0 c315 0 340 -1 343 -17
3 -10 4 5 5 32 0 28 -2 38 -4 23 l-4 -28 -340 0 -339 0 0 45 0 45 339 0 c315
0 340 -1 343 -17 3 -10 4 5 5 32 0 28 -2 38 -4 23 l-4 -28 -339 0 -339 0 -4
28 c-2 15 -4 -38 -5 -118z"/>
<path d="M1073 2365 c-1 -27 1 -42 4 -32 4 16 29 17 343 17 314 0 339 -1 342
-17 3 -10 4 5 5 32 0 28 -2 38 -4 23 l-4 -28 -339 0 -339 0 -4 28 c-2 15 -4 5
-4 -23z"/>
<path d="M1073 2265 c-1 -27 1 -42 4 -32 4 16 29 17 343 17 314 0 339 -1 342
-17 3 -10 4 5 5 32 0 28 -2 38 -4 23 l-4 -28 -339 0 -339 0 -4 28 c-2 15 -4 5
-4 -23z"/>
<path d="M1762 2095 c0 -16 2 -22 5 -12 2 9 2 23 0 30 -3 6 -5 -1 -5 -18z"/>
<path d="M1378 1483 c23 -2 61 -2 85 0 23 2 4 4 -43 4 -47 0 -66 -2 -42 -4z"/>
<path d="M6480 2270 c0 -7 -60 -10 -180 -8 l-180 3 2 -45 c1 -44 1 -44 5 -7
l4 37 174 0 174 0 4 -37 c3 -31 4 -29 5 15 1 28 0 52 -3 52 -3 0 -5 -5 -5 -10z"/>
<path d="M4223 2220 c0 -30 2 -43 4 -27 2 15 2 39 0 55 -2 15 -4 2 -4 -28z"/>
<path d="M3862 2213 l1 -48 4 42 4 43 172 3 172 3 -177 2 -178 2 2 -47z"/>
<path d="M6112 2110 c1 -44 1 -44 5 -7 l4 37 184 0 184 0 4 -42 4 -43 1 50 2
50 -195 0 -195 0 2 -45z"/>
<path d="M3852 2103 l1 -48 4 43 4 42 184 0 184 0 4 -47 3 -48 2 53 2 52 -195
0 -195 0 2 -47z"/>
<path d="M6103 1995 c0 -27 2 -40 4 -27 4 22 5 22 198 22 l194 0 4 -32 c2 -19
4 -9 4 22 0 30 -1 47 -4 38 -4 -16 -22 -18 -198 -18 -193 0 -194 0 -198 23 -2
12 -4 0 -4 -28z"/>
<path d="M3843 1990 c0 -25 2 -35 4 -22 4 22 5 22 198 22 l194 0 4 -32 c2 -19
4 -9 4 22 0 30 -1 47 -4 38 -4 -16 -22 -18 -198 -18 -176 0 -194 2 -198 18 -3
9 -5 -3 -4 -28z"/>
<path d="M6092 1888 l-2 -48 213 -2 212 -2 -215 -6 -215 -5 -1 -45 -1 -45 4
43 4 43 215 -3 214 -3 -2 50 c-1 36 -2 41 -5 18 l-4 -33 -204 0 -204 0 -4 43
-4 42 -1 -47z"/>
<path d="M3832 1873 l-2 -53 209 0 c158 0 211 -3 214 -12 3 -7 5 12 5 42 -1
30 -3 43 -5 28 l-4 -28 -204 0 -204 0 -4 38 c-3 30 -4 28 -5 -15z m321 -40
c-56 -2 -151 -2 -210 0 -59 1 -13 3 102 3 116 0 164 -2 108 -3z"/>
<path d="M3823 1765 c0 -27 2 -38 4 -22 2 15 2 37 0 50 -2 12 -4 0 -4 -28z"/>
<path d="M6523 1740 c0 -30 2 -43 4 -27 2 15 2 39 0 55 -2 15 -4 2 -4 -28z"/>
<path d="M4263 1730 c0 -30 2 -43 4 -27 2 15 2 39 0 55 -2 15 -4 2 -4 -28z"/>
<path d="M6072 1658 l-2 -48 -75 0 c-110 0 -94 -20 18 -22 l92 -2 -95 -6 -95
-6 78 -2 77 -2 0 -110 0 -110 -77 -2 -78 -2 95 -6 95 -6 -92 -2 c-102 -2 -132
-22 -34 -22 54 0 60 -2 64 -22 4 -23 4 -23 6 -1 1 16 8 23 29 25 l27 3 3 148
c2 124 0 147 -12 147 -11 0 -16 14 -19 48 l-3 47 -2 -47z m28 -198 c0 -67 -4
-110 -10 -110 -6 0 -10 43 -10 110 0 67 4 110 10 110 6 0 10 -43 10 -110z"/>
<path d="M3812 1653 c-2 -42 -2 -42 -44 -46 -26 -2 -12 -4 35 -5 42 -1 77 -6
77 -12 0 -5 -35 -11 -77 -13 l-78 -3 83 -2 c76 -2 82 -1 82 18 0 16 -7 20 -34
20 -34 0 -35 1 -39 43 l-4 42 -1 -42z"/>
<path d="M6533 1610 c0 -30 2 -43 4 -27 2 15 2 39 0 55 -2 15 -4 2 -4 -28z"/>
<path d="M4290 1600 c0 -6 90 -10 250 -10 160 0 250 4 250 10 0 6 -90 10 -250
10 -160 0 -250 -4 -250 -10z"/>
<path d="M4820 1600 c0 -7 182 -10 525 -10 343 0 525 3 525 10 0 7 -182 10
-525 10 -343 0 -525 -3 -525 -10z"/>
<path d="M4413 1573 c70 -2 184 -2 255 0 70 1 12 3 -128 3 -140 0 -198 -2
-127 -3z"/>
<path d="M5083 1573 c148 -2 386 -2 530 0 144 1 24 2 -268 2 -291 0 -409 -1
-262 -2z"/>
<path d="M6543 1490 c0 -30 2 -43 4 -27 2 15 2 39 0 55 -2 15 -4 2 -4 -28z"/>
<path d="M3730 1470 c0 -7 183 -10 530 -10 347 0 530 3 530 10 0 7 -183 10
-530 10 -347 0 -530 -3 -530 -10z"/>
<path d="M4820 1470 c0 -7 182 -10 525 -10 343 0 525 3 525 10 0 7 -182 10
-525 10 -343 0 -525 -3 -525 -10z"/>
<path d="M3993 1443 c147 -2 387 -2 535 0 147 1 26 2 -268 2 -294 0 -415 -1
-267 -2z"/>
<path d="M5083 1443 c148 -2 386 -2 530 0 144 1 24 2 -268 2 -291 0 -409 -1
-262 -2z"/>
<path d="M6553 1360 c0 -30 2 -43 4 -27 2 15 2 39 0 55 -2 15 -4 2 -4 -28z"/>
<path d="M3805 1341 l80 -5 -80 -6 -80 -6 83 -2 c67 -2 82 1 82 13 0 12 -15
15 -82 13 l-83 -2 80 -5z"/>
<path d="M4413 1343 c70 -2 184 -2 255 0 70 1 12 3 -128 3 -140 0 -198 -2
-127 -3z"/>
<path d="M5083 1343 c148 -2 386 -2 530 0 144 1 24 2 -268 2 -291 0 -409 -1
-262 -2z"/>
<path d="M4290 1320 c0 -6 90 -10 250 -10 160 0 250 4 250 10 0 6 -90 10 -250
10 -160 0 -250 -4 -250 -10z"/>
<path d="M4820 1320 c0 -7 182 -10 525 -10 343 0 525 3 525 10 0 7 -182 10
-525 10 -343 0 -525 -3 -525 -10z"/>
<path d="M3782 1285 c0 -16 2 -22 5 -12 2 9 2 23 0 30 -3 6 -5 -1 -5 -18z"/>
<path d="M6563 1240 c0 -30 2 -43 4 -27 2 15 2 39 0 55 -2 15 -4 2 -4 -28z"/>
<path d="M6033 1205 c0 -27 2 -38 4 -22 2 15 2 37 0 50 -2 12 -4 0 -4 -28z"/>
<path d="M6573 1120 c0 -30 2 -43 4 -27 2 15 2 39 0 55 -2 15 -4 2 -4 -28z"/>
<path d="M6023 1090 c0 -25 2 -35 4 -22 2 12 2 32 0 45 -2 12 -4 2 -4 -23z"/>
<path d="M6580 1020 c0 -20 -7 -20 -279 -20 -214 0 -281 3 -284 13 -3 7 -6 5
-6 -5 -1 -17 19 -18 289 -18 l290 0 0 25 c0 14 -2 25 -5 25 -3 0 -5 -9 -5 -20z"/>
</g>
</svg>
